<svg width="36" height="34" viewBox="0 0 36 34" fill="none" xmlns="http://www.w3.org/2000/svg">
<path d="M5 13.1H3.7C2.2 13.1 1 11.9 1 10.4V9.7C1 8.2 2.2 7 3.7 7H32.3C33.8 7 35 8.2 35 9.7V10.3C35 11.8 33.8 13 32.3 13H31" stroke="#581689" stroke-width="1.5" stroke-miterlimit="10" stroke-linecap="round" stroke-linejoin="round"/>
<path d="M1 9.1V3.7C1 2.2 2.2 1 3.7 1H32.3C33.8 1 35 2.2 35 3.7V9" stroke="#581689" stroke-width="1.5" stroke-miterlimit="10" stroke-linecap="round" stroke-linejoin="round"/>
<path d="M28 7.09998V27.1H8V7.09998" stroke="#581689" stroke-width="1.5" stroke-miterlimit="10" stroke-linecap="round" stroke-linejoin="round"/>
<path d="M28 30.1H8" stroke="#581689" stroke-width="1.5" stroke-miterlimit="10" stroke-linecap="round" stroke-linejoin="round"/>
<path d="M28 33.1H8" stroke="#581689" stroke-width="1.5" stroke-miterlimit="10" stroke-linecap="round" stroke-linejoin="round"/>
<path d="M23.2 7C23.7 7.9 24 8.9 24 10C24 13.3 21.3 16 18 16C14.7 16 12 13.3 12 10C12 8.9 12.3 7.9 12.8 7" stroke="#581689" stroke-width="1.5" stroke-miterlimit="10" stroke-linecap="round" stroke-linejoin="round"/>
<path d="M22.2002 24.9C22.2002 22.8 23.9002 21.1 26.0002 21.1" stroke="#581689" stroke-width="1.5" stroke-miterlimit="10" stroke-linecap="round" stroke-linejoin="round"/>
<path d="M14.0002 24.9C14.0002 22.8 12.3002 21.1 10.2002 21.1" stroke="#581689" stroke-width="1.5" stroke-miterlimit="10" stroke-linecap="round" stroke-linejoin="round"/>
</svg>
