<svg width="34" height="40" viewBox="0 0 34 40" fill="none" xmlns="http://www.w3.org/2000/svg">
<path d="M23 30V37C23 38.1 22.1 39 21 39H3C1.9 39 1 38.1 1 37V3C1 1.9 1.9 1 3 1H21C22.1 1 23 1.9 23 3V8" stroke="#581689" stroke-width="1.5" stroke-miterlimit="10" stroke-linecap="round" stroke-linejoin="round"/>
<path d="M31.1999 27H9.6999C8.6999 27 7.8999 26.2 7.8999 25.2V12.7C7.8999 11.7 8.6999 10.9 9.6999 10.9H31.1999C32.1999 10.9 32.9999 11.7 32.9999 12.7V25.2C32.9999 26.2 32.1999 27 31.1999 27Z" stroke="#581689" stroke-width="1.5" stroke-miterlimit="10" stroke-linecap="round" stroke-linejoin="round"/>
<path d="M12 23H16" stroke="#581689" stroke-width="1.5" stroke-miterlimit="10" stroke-linecap="round" stroke-linejoin="round"/>
<path d="M8 15H33" stroke="#581689" stroke-width="1.5" stroke-miterlimit="10" stroke-linecap="round" stroke-linejoin="round"/>
<path d="M8 19H33" stroke="#581689" stroke-width="1.5" stroke-miterlimit="10" stroke-linecap="round" stroke-linejoin="round"/>
<path d="M19 23H22" stroke="#581689" stroke-width="1.5" stroke-miterlimit="10" stroke-linecap="round" stroke-linejoin="round"/>
<path d="M25 23H29" stroke="#581689" stroke-width="1.5" stroke-miterlimit="10" stroke-linecap="round" stroke-linejoin="round"/>
<path d="M1 6H23" stroke="#581689" stroke-width="1.5" stroke-miterlimit="10" stroke-linecap="round" stroke-linejoin="round"/>
<path d="M1 31H23" stroke="#581689" stroke-width="1.5" stroke-miterlimit="10" stroke-linecap="round" stroke-linejoin="round"/>
<path d="M10 35H13" stroke="#581689" stroke-width="1.5" stroke-miterlimit="10" stroke-linecap="round" stroke-linejoin="round"/>
</svg>
