<svg width="38" height="34" viewBox="0 0 38 34" fill="none" xmlns="http://www.w3.org/2000/svg">
<path d="M20 11H13V14H20V11Z" stroke="#581689" stroke-width="1.5" stroke-miterlimit="10" stroke-linecap="round" stroke-linejoin="round"/>
<path d="M13 19H15" stroke="#581689" stroke-width="1.5" stroke-miterlimit="10" stroke-linecap="round" stroke-linejoin="round"/>
<path d="M13 23H15" stroke="#581689" stroke-width="1.5" stroke-miterlimit="10" stroke-linecap="round" stroke-linejoin="round"/>
<path d="M18 19H20" stroke="#581689" stroke-width="1.5" stroke-miterlimit="10" stroke-linecap="round" stroke-linejoin="round"/>
<path d="M18 23H20" stroke="#581689" stroke-width="1.5" stroke-miterlimit="10" stroke-linecap="round" stroke-linejoin="round"/>
<path d="M35 16V18" stroke="#581689" stroke-width="1.5" stroke-miterlimit="10" stroke-linecap="round" stroke-linejoin="round"/>
<path d="M35 26V30.5C35 31.9 33.9 33 32.5 33H3.5C2.1 33 1 31.9 1 30.5V3.5C1 2.1 2.1 1 3.5 1H32.5C33.9 1 35 2.1 35 3.5V8" stroke="#581689" stroke-width="1.5" stroke-miterlimit="10" stroke-linecap="round" stroke-linejoin="round"/>
<path d="M28 24V27C28 28.1 27.1 29 26 29H7C5.9 29 5 28.1 5 27V7C5 5.9 5.9 5 7 5H26C27.1 5 28 5.9 28 7V24Z" stroke="#581689" stroke-width="1.5" stroke-miterlimit="10" stroke-linecap="round" stroke-linejoin="round"/>
<path d="M37 10H33V14H37V10Z" stroke="#581689" stroke-width="1.5" stroke-miterlimit="10" stroke-linecap="round" stroke-linejoin="round"/>
<path d="M37 20H33V24H37V20Z" stroke="#581689" stroke-width="1.5" stroke-miterlimit="10" stroke-linecap="round" stroke-linejoin="round"/>
</svg>
