<svg width="563" height="414" viewBox="0 0 563 414" fill="none" xmlns="http://www.w3.org/2000/svg">
<path d="M19.4606 321.329L562.795 315.601" stroke="black" stroke-miterlimit="10"/>
<path opacity="0.07" d="M385.893 237.438L415.521 258.62C415.521 258.62 445.068 239.135 453.489 217.073L422.149 205.879L385.893 237.438Z" fill="black"/>
<path d="M385.895 237.437L416.183 255.835C416.183 255.835 439.082 239.74 453.49 217.072C453.49 217.072 425.049 205.247 421.355 201.302C421.355 201.302 403.252 224.296 385.895 237.437Z" fill="#0062BD"/>
<path d="M70.6591 97.4354C86.2311 97.4354 98.8547 85.0023 98.8547 69.6654C98.8547 54.3284 86.2311 41.8954 70.6591 41.8954C55.0872 41.8954 42.4636 54.3284 42.4636 69.6654C42.4636 85.0023 55.0872 97.4354 70.6591 97.4354Z" fill="#9E9E9E" stroke="black" stroke-miterlimit="10"/>
<path d="M70.6601 95.1592C84.8026 95.1592 96.2674 83.7459 96.2674 69.667C96.2674 55.5881 84.8026 44.1749 70.6601 44.1749C56.5176 44.1749 45.0529 55.5881 45.0529 69.667C45.0529 83.7459 56.5176 95.1592 70.6601 95.1592Z" fill="white" stroke="black" stroke-miterlimit="10"/>
<path d="M61.5024 69.6672L71.5701 74.0477L82.5139 58.7284" stroke="black" stroke-miterlimit="10"/>
<path d="M80.847 296.307C80.847 295.065 66.1635 254.024 60.0458 250.709" stroke="black" stroke-miterlimit="10"/>
<path d="M84.5176 297.55C84.5176 297.55 81.2535 226.666 72.2822 220.448" stroke="black" stroke-miterlimit="10"/>
<path d="M82.6833 302.316C82.6833 302.316 86.0926 272.688 99.6097 237.444" stroke="black" stroke-miterlimit="10"/>
<path d="M72.8182 221.096C65.534 216.22 57.7191 211.219 48.9982 211.029C43.2809 210.904 37.739 212.891 32.4323 215.054C27.1256 217.217 21.8189 219.615 16.1518 220.386C10.4846 221.157 4.25679 220.055 0.141602 216.02C5.20298 217.542 10.5547 214.578 14.3645 210.869C18.1793 207.159 21.2232 202.573 25.6187 199.599C33.6238 194.178 44.6527 195.364 53.0332 200.165C61.4138 204.966 67.4264 213.237 73.1185 221.122" fill="#39B54A"/>
<path d="M99.591 237.419C99.4007 231.947 99.3507 226.36 100.953 221.129C102.555 215.897 106.084 211.006 111.146 209.124C117.068 206.926 123.576 209.174 129.614 211.011C135.651 212.848 142.7 214.13 147.852 210.435C141.784 216.112 134.079 219.962 125.944 221.374C128.252 221.524 130.555 221.679 132.863 221.83C125.128 224.273 117.393 226.721 109.659 229.164C107.361 229.89 105.023 230.636 103.055 232.038C101.088 233.439 99.5109 235.632 99.4358 238.075" fill="#39B54A"/>
<path d="M72.2835 220.447C72.2835 220.447 59.4723 200.437 39.6173 203.656" stroke="black" stroke-miterlimit="10"/>
<path d="M99.6803 235.875C99.6803 235.875 104.521 220.105 120.036 216.376" stroke="black" stroke-miterlimit="10"/>
<path d="M60.5525 250.781C60.5525 250.781 49.5136 247.547 40.0216 256.779C30.5297 266.016 30.78 269.395 25.2881 270.827C25.2881 270.827 36.5272 275.718 45.0179 268.243C53.5086 260.769 57.1031 250.531 60.5525 250.781Z" fill="#39B54A"/>
<path d="M57.2281 251.172C57.2281 251.172 50.8351 252.683 47.6411 256.974C44.447 261.264 42.3394 263.702 40.4921 264.543" stroke="#070707" stroke-miterlimit="10"/>
<path d="M93.8998 320.348L73.9146 320.763L62.9008 283.872H102.466L93.8998 320.348Z" fill="#F7931E"/>
<path d="M365.604 255.589C365.168 256.165 364.377 257.006 363.141 257.637C363.01 257.702 362.88 257.767 362.74 257.827" fill="white"/>
<path d="M365.604 255.589C365.168 256.165 364.377 257.006 363.141 257.637C363.01 257.702 362.88 257.767 362.74 257.827" stroke="black" stroke-miterlimit="10"/>
<path d="M319.479 253.159C319.479 253.159 312.154 261.094 307.574 262.01L302.382 246.44C302.387 246.44 319.784 244.308 319.479 253.159Z" fill="black"/>
<path d="M362.824 257.729C362.964 256.628 363.555 254.756 366.038 255.647L373.442 262.67C374.153 263.341 374.504 264.308 374.398 265.284L374.393 265.324C374.393 265.324 385.312 260.343 387.53 261.264C390.288 262.405 386.354 265.674 386.003 265.94C385.653 266.205 394.799 264.618 393.217 266.555C391.635 268.493 369.818 278.165 367.885 278.871C367.885 278.871 359.875 282.005 357.853 282.005C355.83 282.005 350.979 282.005 348.556 282.005C346.133 282.005 305.712 296.553 305.712 296.553L287.524 253.709C287.524 253.709 303.074 234.3 314.092 247.847L311.429 274.035L338.058 267.376C338.058 267.376 343.83 252.287 347.82 252.287C351.274 252.287 362.363 254.28 365.297 254.816C365.657 254.881 365.818 255.301 365.592 255.597" fill="white"/>
<path d="M362.824 257.729C362.964 256.628 363.555 254.756 366.038 255.647L373.442 262.67C374.153 263.341 374.504 264.308 374.398 265.284L374.393 265.324C374.393 265.324 385.312 260.343 387.53 261.264C390.288 262.405 386.353 265.674 386.003 265.94C385.653 266.205 394.799 264.618 393.217 266.555C391.635 268.493 369.818 278.165 367.885 278.871C367.885 278.871 359.875 282.005 357.853 282.005C355.83 282.005 350.979 282.005 348.556 282.005C346.133 282.005 305.712 296.553 305.712 296.553L287.524 253.709C287.524 253.709 303.074 234.3 314.092 247.847L311.429 274.035L338.058 267.376C338.058 267.376 343.83 252.287 347.82 252.287C351.274 252.287 362.363 254.28 365.297 254.816C365.657 254.881 365.818 255.301 365.592 255.597" stroke="black" stroke-miterlimit="10"/>
<path d="M362.739 257.827C361.832 258.223 360.721 258.493 359.364 258.493C356.391 258.493 354.238 258.824 353.011 259.079C352.295 259.229 351.8 259.87 351.825 260.601C351.92 263.309 352.621 269.587 357.147 269.587C361.777 269.587 366.974 267.019 368.851 265.998C369.222 265.797 369.302 265.302 369.011 264.996L363.009 258.683C362.859 258.523 362.784 258.313 362.794 258.093C362.799 257.988 362.809 257.857 362.829 257.717" fill="white"/>
<path d="M362.739 257.827C361.832 258.223 360.721 258.493 359.364 258.493C356.391 258.493 354.238 258.824 353.011 259.079C352.295 259.229 351.8 259.87 351.825 260.601C351.92 263.309 352.621 269.587 357.147 269.587C361.777 269.587 366.974 267.019 368.851 265.998C369.222 265.797 369.302 265.302 369.011 264.996L363.009 258.683C362.859 258.523 362.784 258.313 362.794 258.093C362.799 257.988 362.809 257.857 362.829 257.717" stroke="black" stroke-miterlimit="10"/>
<path d="M369.978 273.918L386.008 265.938" stroke="black" stroke-miterlimit="10"/>
<path d="M304.03 287.957L320.231 292.843L257.081 331.922L198.828 295.341C198.828 295.346 291.389 278.475 304.03 287.957Z" fill="#075CDB"/>
<path opacity="0.5" d="M207.894 296.551C209.957 298.118 213.506 300.521 218.368 302.308C224.325 304.496 231.339 304.626 245.121 304.791C254.743 304.907 259.549 304.967 259.67 304.962C280.731 304.471 305.372 295.445 315.185 291.605C309.573 289.562 303.61 286.779 296.917 286.383C288.025 285.858 210.533 297.302 207.894 296.551Z" fill="#222A2D"/>
<path d="M169.077 250.463C169.077 250.463 180.896 264.145 204.401 265.672L205.317 257.126C205.317 257.126 185.953 237.391 169.077 250.463Z" fill="black"/>
<path d="M177.07 246.844L180.024 268.522C180.114 269.178 179.558 269.733 178.903 269.648L160.845 267.28C159.673 267.125 158.662 266.394 158.146 265.333C156.209 261.343 151.438 251.716 150.612 251.716C149.776 251.716 142.722 252.381 139.918 252.652C139.177 252.722 138.482 253.042 137.946 253.558L130.381 260.832C130.071 261.127 130.191 261.643 130.597 261.778C132.144 262.284 135.298 263.11 136.334 261.813C137.726 260.071 142.602 255.545 144.339 257.984C146.081 260.422 145.731 266.689 145.731 266.689C145.731 266.689 144.684 270.169 142.597 270.169C142.597 270.169 109.175 261.463 108.829 263.205C108.484 264.947 117.675 271.26 124.149 273.303C130.862 275.42 144.339 281.658 146.081 281.308C147.823 280.957 156.524 279.22 159.658 279.22C162.792 279.22 186.117 288.272 186.117 288.272L193.516 288.842C194.452 288.912 195.288 288.262 195.443 287.335L200.395 257.638C200.395 257.633 192.39 244.406 177.07 246.844Z" fill="white" stroke="black" stroke-miterlimit="10"/>
<path d="M150.262 273.067L144.384 273.698C144.384 273.698 135.568 265.092 131.999 264.461C128.429 263.83 133.676 269.708 133.676 269.708C133.676 269.708 128.64 262.989 125.491 262.153C122.342 261.317 120.664 261.102 121.085 261.733C121.506 262.364 130.742 270.128 130.742 270.128C130.742 270.128 121.506 260.892 118.987 260.892C116.469 260.892 114.997 260.892 115.628 261.943C116.259 262.994 126.752 271.18 126.752 271.18" fill="white"/>
<path d="M150.262 273.067L144.384 273.698C144.384 273.698 135.568 265.092 131.999 264.461C128.429 263.83 133.676 269.708 133.676 269.708C133.676 269.708 128.64 262.989 125.491 262.153C122.342 261.317 120.664 261.102 121.085 261.733C121.506 262.364 130.742 270.128 130.742 270.128C130.742 270.128 121.506 260.892 118.987 260.892C116.469 260.892 114.997 260.892 115.628 261.943C116.259 262.994 126.752 271.18 126.752 271.18" stroke="black" stroke-miterlimit="10"/>
<path d="M320.517 293.632L313.208 290.848C289.879 286.668 235.57 298.503 222.344 300.941C209.112 303.379 196.231 292.936 196.231 292.936L201.527 262.408L201.863 260.465L202.148 258.818C190.313 240.715 169.077 250.463 169.077 250.463C169.077 250.463 182.654 182.922 183.7 179.789C184.741 176.655 222.344 167.258 222.344 167.258L271.776 165.866L304.157 178.046C313.904 196.85 319.471 251.854 319.471 251.854C318.435 248.951 313.218 248.15 309.153 247.969C306.385 247.854 304.157 248.024 304.157 248.024L306.365 254.182L320.517 293.632Z" fill="white" stroke="black" stroke-miterlimit="10"/>
<path d="M233.137 141.496L232.816 162.017C232.801 163.073 232.12 163.999 231.119 164.335L222.879 167.083C222.643 167.163 222.588 167.469 222.779 167.624C225.577 169.912 241.382 182.162 254.028 178.057C266.298 174.067 270.729 167.649 271.61 166.177C271.705 166.017 271.635 165.806 271.465 165.731L261.868 161.531C261.122 161.206 260.626 160.475 260.601 159.664L259.955 139.664C259.95 139.518 259.85 139.393 259.705 139.368C257.037 138.858 233.462 134.597 233.137 141.496Z" fill="white" stroke="black" stroke-miterlimit="10"/>
<path d="M226.953 128.369C226.953 128.369 231.439 149.386 247.734 148.204C264.03 147.023 267.334 125.06 267.334 125.06C267.334 125.06 275.109 119.834 272.075 114.757C268.881 111.929 265.441 116.324 265.441 116.324C265.441 116.324 262.998 91.3528 247.494 85.155C246.312 84.6844 231.434 83.5029 227.894 94.3666C224.35 105.23 225.061 119.163 225.061 119.163C225.061 119.163 221.045 114.912 219.393 118.217C217.746 121.521 221.286 126.953 226.953 128.369Z" fill="white" stroke="black" stroke-miterlimit="10"/>
<path d="M234.168 94.9679C230.198 102.603 226.483 110.678 225.066 119.163C221.702 112.285 219.289 105.596 215.925 98.7176C214.077 94.9379 212.18 90.9929 212.911 86.6324C213.291 84.3395 214.568 82.2469 216.595 81.1155C222.047 78.0766 228.37 84.0892 234.188 82.7175C234.388 82.6724 234.503 82.4622 234.448 82.2669L232.586 75.5334C232.571 75.4734 232.651 75.4333 232.686 75.4884C233.952 77.5209 236.896 78.1217 239.249 77.4408C241.762 76.7099 243.795 74.9227 245.877 73.3407C248.756 71.1579 252.025 69.2405 255.63 68.9501C259.234 68.6598 263.194 70.382 264.571 73.7262C265.607 76.2493 265.217 79.5285 267.314 81.2707C269.212 82.8476 272.105 82.2219 274.388 83.1731C276.471 84.0442 277.813 86.1919 278.223 88.4097C278.634 90.6275 278.243 92.9153 277.682 95.0981C275.665 102.903 271.374 110.848 265.452 116.325C264.276 111.909 262.719 106.267 258.683 104.124C256.27 102.848 253.427 102.828 250.723 102.457C244.165 101.556 237.942 98.3422 233.417 93.5111" fill="#2E353D"/>
<path d="M221.546 120.595C222.141 122.037 223.493 123.063 225.04 123.248C225.28 123.278 225.275 122.903 225.04 122.873C223.678 122.707 222.432 121.761 221.906 120.495C221.816 120.274 221.456 120.369 221.546 120.595Z" fill="black"/>
<path d="M266.612 120.251C268.019 120.201 269.23 118.914 269.18 117.507C269.17 117.267 268.795 117.267 268.805 117.507C268.845 118.709 267.819 119.835 266.612 119.875C266.372 119.885 266.372 120.261 266.612 120.251Z" fill="black"/>
<path d="M229.086 364.437C229.086 364.437 223.984 368.051 217.521 372.622L207.659 357.593C212.325 353.208 218.698 345.923 218.698 345.923L229.086 364.437Z" fill="white" stroke="black" stroke-miterlimit="10"/>
<path d="M217.046 372.958C206.463 380.438 192.53 390.255 191.148 391.086C188.89 392.438 185.281 400.568 171.278 395.146C157.281 389.729 168.119 373.474 169.927 370.76C171.729 368.052 200.635 361.278 203.344 360.828C204.07 360.708 205.511 359.581 207.229 357.999C208.991 361.849 212.455 368.503 217.046 372.958Z" fill="black" stroke="black" stroke-miterlimit="10"/>
<path d="M217.523 372.622C217.368 372.732 217.207 372.842 217.047 372.958C212.456 368.502 208.992 361.849 207.23 357.999C207.37 357.869 207.515 357.733 207.66 357.593L217.523 372.622Z" fill="black" stroke="black" stroke-miterlimit="10"/>
<path d="M302.757 353.118L285.801 366.515C280.309 364.157 274.242 361.985 272.795 361.839L290.367 349.529L302.757 353.118Z" fill="white" stroke="black" stroke-miterlimit="10"/>
<path d="M323.599 361.393L316.776 412.087C316.776 412.087 316.15 413.839 307.209 412.487C298.262 411.136 296.52 374.199 295.399 371.816C294.893 370.76 290.903 368.722 286.387 366.765C289.261 364.652 294.247 360.662 302.923 353.167L321.802 358.639C323.003 358.985 323.764 360.156 323.599 361.393Z" fill="black" stroke="black" stroke-miterlimit="10"/>
<path d="M302.924 353.168C294.248 360.662 289.262 364.652 286.388 366.765C286.193 366.68 285.997 366.595 285.802 366.515L302.759 353.118L302.924 353.168Z" fill="black" stroke="black" stroke-miterlimit="10"/>
<path d="M202.146 258.819L205.926 215.609" stroke="black" stroke-miterlimit="10"/>
<path d="M304.711 249.577L293.531 225.987" stroke="black" stroke-miterlimit="10"/>
<path d="M364.111 318.56C351.015 328.948 351.465 328.497 348.306 329.854C347.155 330.345 331 335.101 310.934 340.943H310.929C298.449 344.578 284.446 348.633 271.61 352.347C248.471 359.041 229.086 364.623 229.086 364.623L218.698 346.109L251.665 330.305C251.665 330.305 254.143 328.763 258.373 326.224C280.045 313.223 347.641 274.049 362.755 281.984C380.817 291.466 377.208 308.177 364.111 318.56Z" fill="#3A84FF"/>
<path opacity="0.09" d="M310.928 340.756C298.447 344.391 241.921 360.722 229.05 364.481L218.697 345.923C219.308 346.098 254.167 304.936 310.928 340.756Z" fill="black"/>
<path d="M187.874 289.458C187.874 289.458 263.855 327.411 275.144 336.893L291.855 348.182L271.985 365.794C271.985 365.794 208.31 348.633 195.664 346.375C183.018 344.117 121.601 317.473 141.471 288.121C141.476 288.121 155.699 269.568 187.874 289.458Z" fill="#3A84FF"/>
<path opacity="0.58" d="M258.373 321.329V308.562L254.168 304.938" stroke="#070707" stroke-miterlimit="10"/>
<path d="M270.611 361.708L287.523 348.181" stroke="#0A0A0A" stroke-miterlimit="10"/>
<path d="M297.772 46.92C297.772 46.92 293.006 57.228 297.812 60.9928L312.6 48.7674L297.772 46.92Z" fill="#83B5FE"/>
<path d="M297.511 47.2228L333.266 13.1899C333.266 13.1899 341.987 17.3902 351.579 10.6667L333.266 50.1615C333.266 50.1615 303.614 54.3668 297.511 47.2228Z" fill="#C6E4FF"/>
<path d="M177.94 125.953L174.601 128.911L148.758 151.805L134.19 138.558L128.442 133.337L158.365 105.637L177.94 125.953Z" fill="white" stroke="black" stroke-miterlimit="10"/>
<path d="M128.451 133.337L153.933 128.536L158.369 105.637" stroke="black" stroke-miterlimit="10"/>
<path opacity="0.09" d="M174.601 128.911L148.759 151.805L134.19 138.558C139.892 139.98 144.999 140.04 151.332 136.576C157.319 133.307 162.611 127.625 169.435 127.73C171.242 127.76 172.964 128.2 174.601 128.911Z" fill="#2E353D"/>
<path d="M488.652 309.849H387.67V317.138H488.652V309.849Z" fill="white" stroke="black" stroke-miterlimit="10"/>
<path d="M505.658 260.918L488.652 310.195L420.982 309.5L421.908 307.187L440.416 260.918H505.658Z" fill="white" stroke="black" stroke-miterlimit="10"/>
<path opacity="0.09" d="M466.735 260.918C465.448 261.814 464.232 262.816 463.095 263.947C458.63 268.383 455.971 274.255 452.917 279.757C447.771 289.029 439.39 304.033 428.316 306.931C426.044 307.527 423.891 307.577 421.908 307.187L440.417 260.918H466.735Z" fill="#2E353D"/>
<path d="M536.704 303.99C537.63 302.683 538.742 301.207 540.289 300.611C541.771 300.04 543.298 300.606 544.169 301.908C545.035 303.209 545.12 304.826 544.419 306.218C543.688 307.68 542.306 308.766 540.815 309.377C538.702 310.243 536.369 310.288 534.121 310.318C533.801 310.323 533.801 310.824 534.121 310.819C536.354 310.784 538.662 310.734 540.779 309.923C542.412 309.302 543.928 308.18 544.775 306.623C545.581 305.142 545.616 303.404 544.779 301.928C543.968 300.496 542.447 299.625 540.794 299.94C538.792 300.326 537.385 302.168 536.279 303.73C536.084 304 536.519 304.25 536.704 303.99Z" fill="black"/>
<path d="M520.323 293.082C522.221 292.657 523.868 291.295 524.644 289.513C525.455 287.65 525.239 285.403 524.128 283.705C522.987 281.963 521.049 281.102 519.297 280.121C518.401 279.62 517.535 279.07 516.819 278.329C516.143 277.633 515.607 276.802 515.227 275.911C514.366 273.893 514.301 271.56 515.147 269.528C515.272 269.232 514.786 269.102 514.666 269.392C513.224 272.852 514.361 277.157 517.325 279.445C518.922 280.677 520.889 281.327 522.451 282.604C524.078 283.941 524.934 286.048 524.539 288.141C524.128 290.334 522.351 292.101 520.188 292.592C519.878 292.667 520.008 293.152 520.323 293.082Z" fill="black"/>
<path d="M526.788 258.079C524.801 260.567 524.09 263.931 524.796 267.025C525.467 269.984 527.494 272.171 529.762 274.059C531.905 275.841 534.348 277.443 535.965 279.761C536.796 280.948 537.367 282.314 537.477 283.771C537.597 285.378 537.211 287.015 536.385 288.402C534.698 291.241 531.199 292.597 528.015 291.821C527.609 291.721 527.214 291.591 526.833 291.426C526.543 291.301 526.288 291.731 526.583 291.856C529.552 293.148 533.226 292.547 535.554 290.269C537.837 288.041 538.623 284.457 537.462 281.483C536.425 278.83 534.183 276.963 532.02 275.235C529.762 273.433 527.289 271.606 525.992 268.947C524.55 265.984 524.746 262.279 526.433 259.46C526.648 259.105 526.883 258.76 527.144 258.439C527.339 258.184 526.989 257.823 526.788 258.079Z" fill="black"/>
<path d="M524.915 317.132C533.635 317.132 540.705 316.2 540.705 315.05C540.705 313.899 533.635 312.967 524.915 312.967C516.194 312.967 509.125 313.899 509.125 315.05C509.125 316.2 516.194 317.132 524.915 317.132Z" fill="white" stroke="black" stroke-miterlimit="10"/>
<path d="M536.194 302.123C536.194 305.648 534.918 308.852 532.845 311.205C530.672 313.683 527.608 315.225 524.219 315.225C517.606 315.225 512.249 309.357 512.249 302.123C512.249 300.992 512.379 299.895 512.63 298.849C512.765 298.278 512.935 297.718 513.135 297.177H535.308C535.879 298.704 536.194 300.371 536.194 302.123Z" fill="white" stroke="black" stroke-miterlimit="10"/>
<path opacity="0.5" d="M532.845 311.205C530.672 313.683 527.608 315.225 524.219 315.225C517.606 315.225 512.249 309.357 512.249 302.123C512.249 300.992 512.379 299.895 512.63 298.849C513.761 300.681 514.822 303.009 515.979 303.59C518.026 304.611 520.379 304.776 522.657 304.967C524.94 305.157 527.303 305.422 529.256 306.614C530.772 307.54 531.944 308.997 532.645 310.634C532.725 310.819 532.795 311.009 532.845 311.205Z" fill="#F7931E"/>
<path d="M475.084 71.2979L468.175 77.8261C468.13 77.8711 468.105 77.9262 468.105 77.9913L468.245 82.2667C468.25 82.4219 468.095 82.532 467.93 82.4919L463.604 81.4356C463.439 81.3956 463.279 81.5107 463.289 81.6609L463.549 86.9075C463.554 87.0026 463.499 87.0877 463.404 87.1228L455.649 90.2968" stroke="black" stroke-miterlimit="10" stroke-linecap="round"/>
<path d="M470.825 70.9386L475.581 70.8035V75.229" stroke="black" stroke-miterlimit="10" stroke-linecap="round"/>
<path d="M485.603 34.8932L477.022 27.6391L484.001 19.4387L492.577 26.6879L485.603 34.8932Z" fill="#FE6666"/>
<path d="M197.05 14.011L209.636 2.88196L228.009 15.2926" stroke="white" stroke-width="0.75" stroke-miterlimit="10"/>
<path d="M197.051 15.2731C197.675 15.2731 198.182 14.7082 198.182 14.0115C198.182 13.3147 197.675 12.7499 197.051 12.7499C196.426 12.7499 195.919 13.3147 195.919 14.0115C195.919 14.7082 196.426 15.2731 197.051 15.2731Z" fill="white" stroke="white" stroke-width="0.75" stroke-miterlimit="10"/>
<path d="M209.635 4.76474C210.597 4.76474 211.377 3.92197 211.377 2.88237C211.377 1.84276 210.597 1 209.635 1C208.673 1 207.893 1.84276 207.893 2.88237C207.893 3.92197 208.673 4.76474 209.635 4.76474Z" fill="white" stroke="white" stroke-width="0.75" stroke-miterlimit="10"/>
<path d="M228.009 16.9408C228.9 16.9408 229.621 16.2033 229.621 15.2937C229.621 14.384 228.9 13.6466 228.009 13.6466C227.119 13.6466 226.397 14.384 226.397 15.2937C226.397 16.2033 227.119 16.9408 228.009 16.9408Z" fill="white" stroke="white" stroke-width="0.75" stroke-miterlimit="10"/>
<path d="M483.18 35.5L474.604 28.2459L481.577 20.0455L490.153 27.2947L483.18 35.5Z" stroke="white" stroke-miterlimit="10"/>
<path d="M489.212 143.636L489.593 148.577L489.973 153.523L485.453 151.321L480.927 149.118L485.072 146.379L489.212 143.636Z" fill="white" stroke="white" stroke-miterlimit="10"/>
<path d="M118.073 19.9876C119.859 19.9876 121.307 18.5172 121.307 16.7034C121.307 14.8897 119.859 13.4193 118.073 13.4193C116.287 13.4193 114.839 14.8897 114.839 16.7034C114.839 18.5172 116.287 19.9876 118.073 19.9876Z" fill="#000033"/>
<path d="M280.192 7.51681C281.343 7.51681 282.275 6.58663 282.275 5.43919C282.275 4.29176 281.343 3.36157 280.192 3.36157C279.042 3.36157 278.11 4.29176 278.11 5.43919C278.11 6.58663 279.042 7.51681 280.192 7.51681Z" fill="white" stroke="white" stroke-miterlimit="10"/>
<path d="M18.1038 140.992C21.3083 140.992 23.9061 138.46 23.9061 135.335C23.9061 132.211 21.3083 129.678 18.1038 129.678C14.8993 129.678 12.3015 132.211 12.3015 135.335C12.3015 138.46 14.8993 140.992 18.1038 140.992Z" fill="#FF6666"/>
<path d="M17.2375 139.137C20.442 139.137 23.0398 136.604 23.0398 133.48C23.0398 130.356 20.442 127.823 17.2375 127.823C14.033 127.823 11.4352 130.356 11.4352 133.48C11.4352 136.604 14.033 139.137 17.2375 139.137Z" stroke="white" stroke-miterlimit="10"/>
<path d="M380.116 109.085C380.78 109.344 381.441 109.607 382.106 109.863C383.96 110.577 385.818 111.291 387.672 112.004C388.02 112.139 388.295 112.36 388.465 112.708C388.531 112.846 388.57 112.992 388.57 113.151C388.57 116.021 388.57 118.887 388.566 121.757C388.566 122.268 388.166 122.723 387.62 122.858C387.321 122.932 387.025 122.911 386.733 122.801C384.249 121.845 381.765 120.894 379.284 119.938C374.772 118.205 370.263 116.469 365.751 114.732C365.611 114.679 365.465 114.643 365.34 114.554C365.392 114.505 365.448 114.529 365.504 114.544C365.765 114.611 366.018 114.586 366.269 114.487C368.193 113.72 370.124 112.96 372.051 112.2C374.633 111.18 377.211 110.154 379.792 109.142C379.862 109.114 379.931 109.085 379.997 109.046C380.046 109.025 380.084 109.046 380.116 109.085Z" fill="#6957A4"/>
<path d="M380.116 109.084C380.081 109.073 380.046 109.066 380.012 109.056C379.932 109.095 379.865 109.049 379.796 109.024C377.107 107.997 374.417 106.957 371.728 105.927C369.992 105.263 368.259 104.595 366.527 103.924C366.228 103.807 365.932 103.792 365.622 103.821C365.56 103.828 365.497 103.853 365.441 103.796C365.761 103.622 366.113 103.512 366.45 103.377C370.002 101.971 373.558 100.564 377.11 99.1613C379.5 98.2167 381.887 97.2755 384.277 96.3308C385.122 95.997 385.961 96.583 385.961 97.5135C385.964 100.287 385.961 103.061 385.961 105.835C385.961 106.449 385.693 106.864 385.126 107.092C383.849 107.603 382.569 108.104 381.292 108.608C380.899 108.764 380.506 108.928 380.116 109.084Z" fill="#52C7EB"/>
<path d="M365.436 103.796C366.035 103.636 366.56 103.888 367.096 104.094C370.321 105.337 373.549 106.573 376.774 107.816C377.853 108.232 378.928 108.647 380.006 109.063C379.972 109.155 379.878 109.155 379.812 109.183C378.382 109.752 376.952 110.316 375.518 110.881C373.974 111.492 372.429 112.096 370.884 112.706C369.555 113.232 368.226 113.761 366.897 114.287C366.682 114.372 366.466 114.457 366.25 114.543C365.948 114.66 365.642 114.642 365.335 114.553C364.827 114.312 364.577 113.896 364.577 113.328C364.573 111.922 364.577 110.515 364.577 109.109C364.577 107.802 364.587 106.499 364.573 105.192C364.563 104.52 364.807 104.041 365.436 103.796Z" fill="#494098"/>
</svg>
