<svg width="1530" height="265" viewBox="0 0 1530 265" fill="none" xmlns="http://www.w3.org/2000/svg">
<mask id="mask0_2_270" style="mask-type:alpha" maskUnits="userSpaceOnUse" x="0" y="0" width="1530" height="265">
<rect width="1530" height="265" fill="white"/>
</mask>
<g mask="url(#mask0_2_270)">
<rect width="1530" height="265" fill="url(#paint0_linear_2_270)"/>
<g opacity="0.01">
<path d="M566.984 194.664C566.864 177.361 519.251 157.905 498.911 147.871C458.696 128.03 416.865 109.708 375.432 91.0923C333.998 72.4766 292.443 53.9128 252.928 33.4755C227.272 20.2096 197.124 5.26782 179.725 -13.6754C142.656 -54.0444 259.528 -48.0496 289.802 -48.9326C366.818 -51.1882 455.153 -50.1579 527.342 -71.1809C570.437 -83.7308 587.621 -104.778 578.365 -135.453C575.381 -145.429 566.551 -156.909 574.032 -166.627C582.02 -177.008 600.397 -182.997 615.649 -187.014C671.281 -201.647 735.244 -203.343 794.105 -205.18C857.576 -207.199 921.643 -206.609 984.665 -206.764C1011.39 -206.83 1039.3 -213.324 1064.75 -218.603C1098.11 -225.521 1131.07 -233.292 1164.16 -240.806C1236.94 -257.296 1311.95 -274.665 1388.95 -278.852C1437.18 -281.476 1489.88 -277.929 1527.35 -255.106C1546.16 -243.649 1556 -226.61 1566.88 -211.477C1580.04 -193.195 1592.68 -174.736 1606.7 -156.742C1651.84 -98.785 1716.3 -42.1545 1820.91 -39.3084C1836.74 -38.8797 1852.28 -40.2772 1868.04 -40.5396C1878.07 -40.7013 1887 -39.0614 1890.72 -31.9626C1900.1 -14.1546 1870.63 13.9571 1858.55 28.0864C1832.1 59.0146 1802.26 88.5562 1774.32 118.861C1755.83 138.905 1723.83 166.296 1723.49 190.647C1723.19 212.345 1765.85 228.029 1789.08 238.718C1810.84 248.724 1850.28 262.727 1852.66 283.083C1853.82 292.953 1844.2 301.133 1834.15 307.481C1816.54 318.583 1796.25 326.413 1780.41 339.08C1754.43 359.859 1732.73 388.451 1736.25 416.452C1738.7 435.855 1755.06 448.56 1775.88 460.707C1784.63 465.813 1791.73 469.426 1792.19 477.72C1792.94 490.886 1785.32 504.817 1779.04 517.024C1756.58 560.705 1724.67 602.946 1689.18 642.387C1671.44 662.097 1652.28 681.747 1628.76 698.561C1613.36 709.601 1592.59 722.741 1569.1 722.726C1541.9 722.726 1513.12 716.085 1486.68 711.119C1437.29 701.839 1388.5 691.112 1339.91 680.106C1227.54 654.643 1116.23 627.118 1005.97 597.532C928.305 576.655 848.993 555.748 775.975 527.996C761.486 522.428 748.039 516.07 735.835 509.017C722.521 501.481 706 498.112 689.25 495.599C585.281 480.001 471.376 491.976 366.976 499.485C340.476 501.387 313.977 503.301 287.402 504.631C264.556 505.777 237.207 509.062 215.005 504.126C171.254 494.412 209.5 458.61 225.67 444.024C282.598 392.66 356.049 349.202 424.128 304.837C456.497 283.709 489.112 262.636 519.721 240.312C535.667 228.706 567.089 209.833 566.984 194.664Z" stroke="white" stroke-width="5"/>
<path d="M586.599 191.748C569.15 173.438 538.534 159.906 513.121 147.169C476.55 128.835 438.83 111.519 401.677 93.704C366.546 76.8559 331.342 59.8195 298.808 40.6876C278.971 29.0212 254.08 15.0695 244.685 -2.18569C224.302 -39.5862 333.954 -33.912 361.024 -34.8904C428.322 -37.3115 504.615 -37.8664 566.88 -57.5591C605.757 -69.855 621.728 -90.2484 613.437 -118.562C610.568 -128.358 605.404 -136.72 611.944 -146.464C619.505 -157.742 636.895 -164.774 652.836 -169.737C702.774 -185.287 761.802 -188.591 815.934 -191.341C871.858 -194.18 930.122 -196.181 984.25 -194.105C1005.89 -193.278 1030.81 -197.974 1052.23 -201.575C1085.19 -207.124 1117.81 -213.522 1150.61 -219.476C1217.26 -231.581 1285.64 -243.242 1354.98 -244.569C1405.03 -245.528 1457.22 -240.333 1498.87 -220.253C1541.08 -199.891 1559.8 -168.326 1583.21 -138.32C1623.63 -86.444 1678.23 -23.3703 1771.75 -12.4099C1785.93 -10.7451 1799.55 -11.6483 1813.72 -11.2396C1821 -11.0324 1829.3 -10.3768 1832.99 -5.51987C1842.58 7.08989 1816.3 30.1459 1807.46 39.8046C1783.02 66.4965 1755.55 91.8814 1729.94 118.06C1709.6 138.846 1683.83 161.944 1675.96 186.581C1666.41 216.479 1728.79 237.756 1750.72 258.81C1788.75 295.317 1716.7 316.119 1681.18 333.525C1640.4 353.508 1606.73 389.966 1643.29 420.885C1657.28 432.709 1674.49 439.753 1680.74 455.183C1690.51 479.313 1683.12 506.888 1675.19 530.74C1663.25 566.597 1644.35 602.066 1618.66 634.473C1600.26 657.678 1569.73 694.06 1525.01 691.332C1494.91 689.51 1464.31 682.858 1435.01 676.977C1391.12 668.175 1347.79 658.143 1304.69 647.721C1205.18 623.735 1106.78 597.285 1010.32 568.192C944.499 548.335 760.899 467.182 747.083 464.288C705.893 455.663 659.059 457.181 616.592 458.518C560.106 460.294 503.894 464.893 447.732 469.155C420.998 471.173 394.129 473.64 367.259 474.634C348.134 475.34 323.008 475.945 306.25 468.425C273.546 453.752 309.979 420.18 325.051 405.976C371.212 362.433 429.606 324.724 484.362 286.169C511.232 267.238 538.509 248.341 562.899 227.892C572.734 219.636 597.386 203.056 586.599 191.748Z" stroke="white" stroke-width="5"/>
<path d="M596.428 188.499C548.773 151.862 486.9 124.239 430.136 93.6392C401.64 78.2761 383.393 56.722 358.818 38.4249C346.035 28.9098 330.078 16.8761 327.611 3.61185C321.029 -31.8716 419.86 -27.0752 449.437 -28.4208C506.628 -31.0342 571.237 -33.0159 623.123 -51.1244C654.823 -62.194 670.434 -80.3619 664.509 -104.243C661.882 -114.838 657.792 -123.839 664.509 -134.241C671.315 -144.779 685.493 -152.217 699.851 -157.792C741.11 -173.826 792.384 -178.953 838.837 -182.772C893.204 -187.215 948.18 -188.953 1003.11 -187.966C1051.16 -187.113 1098.99 -196.704 1145.91 -203.026C1208.07 -211.396 1271.36 -218.707 1334.97 -217.601C1385.21 -216.723 1435.84 -209.827 1478.78 -191.497C1522.42 -172.829 1548.66 -144.888 1572.32 -114.738C1608.08 -69.1577 1652.64 -8.07998 1731.09 9.22932C1742.5 11.7516 1753.13 12.0293 1764.9 12.4687C1770.62 12.6807 1778 12.7465 1780.84 16.7776C1787.66 26.4856 1762.44 45.3048 1755.41 51.8604C1732.95 72.8012 1708.6 92.7955 1685.57 113.456C1664.08 132.744 1640.67 152.846 1627.32 175.448C1606.07 211.447 1674 232.496 1672.09 266.797C1670.9 288.093 1640.75 303.367 1616.87 313.93C1587.46 326.921 1545.13 335.463 1530.42 359.171C1519.45 376.83 1536.65 387.108 1549.9 400.507C1572.35 423.211 1573.88 453.987 1571.54 480.267C1568.39 515.781 1556.08 551.817 1535.14 584.463C1525.66 599.263 1514.03 614.654 1496.92 626.149C1480.87 636.918 1465.7 639.679 1444.27 637.474C1378.66 630.713 1312.41 611.868 1249.5 595.036C1170.45 573.886 1092.49 550.536 1016.86 524.265C965.284 506.351 912.548 487.394 867.282 462.642C855.484 456.188 843.405 449.176 834.775 440.664C828.254 434.266 825.49 428.984 814.492 425.332C781.912 414.51 736.592 417.34 701.684 418.465C645.861 420.256 590.317 425.024 534.842 429.318C502.47 431.84 441.488 439.777 415.638 420.74C393.325 404.302 420.25 376.276 434.002 361.796C468.792 325.177 513.543 293.038 555.064 259.946C574.093 244.78 579.543 235.641 595.266 218.781C597.141 216.774 599.543 214.461 601.802 211.899C604.127 209.265 606.229 206.347 606.818 203.564C608.066 197.582 602.28 193.017 596.428 188.499Z" stroke="white" stroke-width="5"/>
<path d="M614.838 190.886C570.804 158.491 517.753 131.876 470.479 101.56C449.283 87.9672 427.878 73.7086 411.728 57.1265C403.04 48.2098 393.82 36.9865 396.211 25.902C403.085 -5.90807 484.37 -3.03597 517.21 -4.89789C566.004 -7.63271 622.062 -10.3898 665.211 -27.5443C693.475 -38.7802 704.074 -55.3693 698.797 -76.7685C693.132 -99.7218 705.797 -116.384 734.621 -129.189C770.759 -145.231 816.381 -151.767 858.335 -156.414C908.678 -161.973 959.971 -164.446 1011.29 -163.788C1061.09 -163.142 1109.35 -168.787 1158.82 -172.457C1224.42 -177.32 1292.12 -179.718 1356.97 -169.751C1413.44 -161.071 1464.45 -141.945 1502.68 -112.367C1542.62 -81.4962 1562.39 -42.6027 1594.82 -8.45003C1615.05 12.8523 1643.25 41.0319 1681.04 49.3125C1693.64 52.0744 1716.62 48.3485 1706.55 61.9334C1700.8 69.7038 1690.03 76.5206 1681.52 82.8727C1667.77 93.1377 1653.57 103.119 1639.59 113.242C1609.8 134.824 1577.89 156.865 1555.56 182.415C1527.42 214.586 1569.25 239.35 1564.15 271.972C1561.41 289.528 1543.37 303.539 1524.27 314.547C1511.92 321.677 1498.41 327.85 1484.6 333.613C1470.2 339.633 1453.14 344.219 1440.58 352C1422.67 363.073 1430.44 376.181 1433.8 390.495C1439.72 415.718 1441.01 441.208 1437.67 466.576C1433.58 497.674 1423.99 529.661 1403.79 557.921C1395.93 568.923 1385.97 580.589 1371.18 587.963C1356.4 595.337 1341.11 594.835 1324.17 592.614C1273.92 586.05 1223.77 570.778 1176.1 556.3C1116.44 538.178 1057.95 517.928 1002.09 494.886C963.532 478.981 924.847 461.798 892.591 440.236C883.21 433.96 874.284 427.239 867.066 419.736C862.111 414.59 859.453 407.952 852.274 404.084C829.809 392.011 784.707 395.616 758.362 396.318C705.781 397.717 654.03 404.367 601.516 405.982C572.857 406.866 527.972 409.087 506.924 392.581C487.13 377.065 505.058 352.627 516.888 337.677C540.137 308.28 571.372 282.09 599.367 254.764C610.875 243.519 623.489 231.755 630.945 218.914C637.568 207.474 626.122 199.192 614.838 190.886Z" stroke="white" stroke-width="5"/>
<path d="M625.673 191.416C590.623 162.909 548.37 137.603 513.066 108.63C492.402 91.664 456.815 63.1415 472.795 39.2221C490.328 12.9389 551.441 12.2223 586.767 10.1044C628.812 7.5832 678.185 4.13923 714.169 -12.2717C725.549 -17.4598 735.244 -24.3271 739.354 -33.3726C743.753 -43.0525 738.944 -51.5235 738.317 -61.2145C737.005 -81.5432 754.947 -97.864 778.692 -109.074C812.251 -124.921 854.214 -132.413 893.851 -137.636C938.501 -143.511 984.254 -146.422 1030.15 -146.308C1073.86 -146.207 1117.11 -146.863 1160.87 -147.619C1218.1 -148.626 1276.14 -146.999 1331.65 -136.719C1386.33 -126.585 1436.05 -107.592 1475.11 -79.6543C1513.21 -52.3906 1538.91 -19.0706 1561.43 14.8717C1574.2 34.1367 1595.79 62.9268 1626.25 72.6576C1639.81 76.9942 1653.11 76.6963 1638.7 87.9599C1620.56 102.143 1596.1 113.523 1575.09 125.653C1544.77 143.159 1513.7 161.008 1488.25 181.821C1472 195.111 1464.76 208.009 1465.88 225.217C1466.74 238.328 1470.66 251.299 1468.68 264.459C1464.04 295.346 1428.07 316.527 1396.27 336.251C1375.82 348.937 1357.13 358.613 1346.6 376.658C1334.15 397.986 1328.91 421.188 1320.6 443.332C1311.46 467.649 1300.9 492.945 1280.94 514.363C1263.18 533.432 1241.57 541.983 1209.24 536.842C1158.81 528.836 1109.09 509.112 1064.32 490.865C1018.75 472.301 973.957 451.427 936.195 425.91C915.806 412.13 901.892 395.95 883.784 381.147C861.013 362.562 809.484 369.601 778.865 371.174C728.036 373.786 568.096 393.328 582.854 330.032C589.014 303.612 613.273 279.229 631.014 255.915C638.366 246.24 649.009 234.628 650.672 223.541C652.486 211.468 636.211 199.999 625.673 191.416Z" stroke="white" stroke-width="5"/>
<path d="M644.178 193.838C617.394 168.005 585.339 143.599 562.357 115.698C547.447 97.6277 532.809 73.4852 552.04 54.3654C573.747 32.7897 621.614 27.7594 656.785 25.0108C693.026 22.1812 736.28 19.7994 765.898 3.43984C775.32 -1.7711 783.089 -8.79787 784.536 -17.2127C785.93 -25.284 781.993 -33.3554 783.297 -41.5731C786.22 -60.026 802.761 -75.228 824.086 -86.2579C887.175 -118.881 981.073 -126.135 1057.19 -126.988C1095.29 -127.412 1134.5 -125.186 1172.85 -123.593C1222.61 -121.526 1272.45 -117.085 1319.9 -106.386C1420.8 -83.6439 1488.43 -33.2081 1535.66 29.5514C1550.53 49.3061 1561.9 70.6794 1585.2 86.555C1597.2 94.7525 1594.58 100.64 1582.3 108.115C1563.11 119.799 1539.69 128.727 1518.39 138.479C1488.08 152.346 1457.13 166.42 1430.33 183.032C1411.86 194.483 1398.75 205.517 1394.77 222.687C1391.93 234.93 1392.59 247.406 1390.88 259.724C1387.63 283.128 1376.5 306.351 1356.8 325.762C1341.15 341.148 1322.51 355.132 1303.25 368.465C1278.11 385.704 1256.25 404.336 1238.02 424.064C1212.8 451.336 1177.38 501.64 1118 488.327C1052.5 473.635 991.111 436.31 949.089 400.146C934.978 388.004 923.393 373.113 904.362 364.159C875.865 350.776 846.961 351.245 813.072 351.301C762.334 351.376 651.933 358.827 650.74 307.413C650.271 287.043 663.3 267.783 669.541 248.19C676.575 226.244 662.471 211.444 644.178 193.838Z" stroke="white" stroke-width="5"/>
<path d="M664.127 196.14C637.634 162.471 578.215 107.148 623.408 69.7057C647.276 49.9166 689.491 42.4839 724.906 38.0531C753.402 34.4692 787.776 33.1241 809.308 17.9295C825.135 6.7587 818.106 -9.49904 824.173 -23.4831C831.699 -40.8215 848.974 -55.0048 870.201 -65.6663C929.52 -95.464 1012 -104.609 1083.36 -106.554C1157.47 -108.568 1239.12 -99.1411 1308.86 -80.9961C1395.82 -58.365 1460.96 -15.5177 1506.52 38.7468C1514.92 48.7638 1522.56 59.0421 1530.64 69.18C1536.06 75.9799 1544.1 82.5561 1548.38 89.7111C1555.49 101.636 1547.11 111.388 1533.67 119.161C1514.34 130.351 1490.59 138.317 1468.55 146.715C1438.41 158.209 1407.6 169.496 1379.56 182.981C1360.72 192.055 1341 201.829 1334.25 217.572C1329.65 228.31 1328.7 239.682 1328.86 250.803C1329.22 274.647 1327.37 293.929 1310.92 315.767C1283.84 351.619 1242.21 383.856 1198.22 410.68C1163.7 431.731 1109.08 464.432 1058.79 450.358C1013.66 437.755 987.27 407.589 957.534 383.201C943.078 371.345 926.838 360.517 907.762 352.082C883.708 341.45 861.063 336.989 832.563 335.25C784.595 332.321 712.266 331.56 697.444 292.643C691.969 278.28 695.096 263.405 692.223 248.856C688.464 229.618 677.493 213.124 664.127 196.14Z" stroke="white" stroke-width="5"/>
<path d="M691.676 197.388C672.81 160.548 648.026 114.119 693.588 81.3763C715.659 65.5144 746.705 56.647 776.746 50.0209C798.262 45.2721 832.435 43.8729 845.628 29.2741C855.318 18.5299 856.66 3.7074 865.422 -7.80367C876.959 -22.8716 894.661 -36.2458 917.129 -46.8695C972.904 -73.4595 1045.54 -83.7357 1111.78 -86.6788C1255.72 -93.0616 1402.17 -42.2166 1479.2 41.4365C1502.16 66.372 1531.8 92.9128 1494.69 118.387C1454.17 146.179 1393.13 159.197 1344.77 178.947C1326.29 186.486 1302.74 195.55 1292.43 209.202C1286.23 217.408 1285.81 227.704 1285.52 236.736C1284.78 259.743 1281.95 280.435 1268.28 301.903C1247.16 335.081 1213.47 365.688 1175.3 390.76C1142.01 412.623 1094.54 438.314 1046.19 422.554C1009.13 410.442 985.618 384.734 956.815 365.782C924.759 344.677 885.123 330.456 841.593 323.508C799.247 316.769 752.802 312.219 730.485 283.574C722.83 273.749 714.831 261.028 711.961 250.15C707.371 232.328 700.594 214.7 691.679 197.388L691.676 197.388Z" stroke="white" stroke-width="5"/>
<path d="M722.392 197.648C713.66 160.446 712.695 121.656 753.245 92.3365C772.17 78.6583 796.093 68.9402 820.284 60.1353C838.081 53.6571 856.464 48.1928 869.758 37.5716C882.074 27.738 891.436 16.3186 903.322 6.22847C918.412 -6.77852 937.18 -18.355 958.906 -28.0572C1011.87 -51.4132 1076.3 -62.3371 1137.94 -66.1266C1167.77 -67.9683 1200.14 -68.9271 1229.78 -63.9064C1258.41 -59.0627 1286.71 -51.4031 1313.03 -42.4732C1368.98 -23.5056 1417.46 4.27015 1452.62 39.3874C1476.72 63.4748 1489.75 86.8966 1458.54 111.333C1423.35 138.876 1368.18 154.074 1322.7 171.948C1291.51 184.209 1256.56 196.228 1250.73 222.283C1246.09 243.016 1242.33 262.693 1230.32 282.291C1212.46 311.197 1186.19 337.382 1153.09 359.292C1122.81 379.254 1084.5 396.191 1041.19 385.531C1006.87 377.07 980.252 358.113 950.27 344.562C916.859 329.426 880.15 321.08 841.492 314.369C806.753 308.315 774.042 299.011 751.588 279.257C746.687 275.128 742.353 270.8 738.624 266.31C734.102 260.551 734.454 254.837 733.566 248.378C731.255 231.332 726.346 214.485 722.392 197.648Z" stroke="white" stroke-width="5"/>
<path d="M756.263 194.608C757.009 159.272 769.572 125.877 803.98 98.3395C818.691 86.5592 836.257 76.8565 852.445 66.0625C865.478 57.3626 877.796 49.2753 892.783 42.1028C928.334 25.1222 957.228 3.14784 995.006 -11.972C1045.44 -32.1867 1103.21 -43.3607 1160.53 -47.8281C1188.52 -50.0112 1217.44 -50.7744 1245.76 -48.3083C1270.08 -46.1909 1293.37 -38.7566 1314.98 -31.1538C1357.34 -16.2555 1398.46 4.9196 1425.96 31.7095C1486.58 90.7706 1367.05 133.714 1305.7 158.861C1277.49 170.429 1234.38 183.824 1222.82 206.74C1214.56 223.109 1209.53 239.756 1198.89 255.62C1170.3 298.222 1112.29 348.329 1034.97 341.658C1001.89 338.808 971.742 327.23 940.856 319.457C909.055 311.452 876.236 306.99 843.184 302.093C812.298 297.52 787.672 291.011 767.72 273.56C758.183 265.228 759.026 255.251 758.176 245.027C756.784 228.232 755.927 211.343 756.263 194.608Z" stroke="white" stroke-width="5"/>
<path d="M787.103 190.079C799.519 136.743 845.654 78.5149 913.488 47.5396C993.271 11.1042 1079.71 -19.5807 1175.04 -28.3988C1219.24 -32.4888 1267.65 -34.5007 1309.35 -21.1267C1341.09 -10.9544 1377.96 4.25181 1395.43 25.6336C1438.16 77.9356 1343.11 119.572 1288.95 143.771C1259.8 156.797 1222.69 169.49 1200.71 188.513C1187.96 199.54 1181.45 214.132 1171.16 226.245C1139.96 262.952 1088.62 292.559 1024.65 297.854C995.079 300.3 965.293 297.276 935.937 294.869C905.893 292.408 875.472 291.07 845.617 287.64C821.782 284.896 793.692 280.251 784.915 262.999C773.846 241.255 782.034 211.86 787.103 190.079Z" stroke="white" stroke-width="5"/>
<path d="M817.345 181.512C835.46 131.367 873.82 82.4548 938.31 52.5183C972.507 36.6448 1012.2 25.687 1050.32 14.8607C1093.52 2.59067 1138.66 -6.93341 1184.76 -11.6578C1242.15 -17.543 1335.12 -22.8472 1365.11 21.3919C1394.88 65.3034 1319.66 104.167 1275.18 126.315C1246.66 140.503 1216.14 153.525 1188.89 169.033C1174.12 177.442 1162.74 187.159 1150.23 197.02C1115.68 224.345 1066.42 245.979 1016.2 257.527C967.542 268.724 907.337 273.683 855.967 269.981C833.801 268.388 817.958 263.026 811.254 247.774C801.967 226.569 809.857 202.226 817.345 181.512Z" stroke="white" stroke-width="5"/>
<path d="M847.395 168.006C865.39 123.856 904.201 83.5334 960.824 57.0334C1024.29 27.3285 1106.01 10.8222 1181.13 2.42857C1221.06 -2.02978 1307.58 -14.1175 1327.93 20.4777C1348.28 55.0729 1289.44 89.1657 1255.58 107.935C1214.48 130.679 1170.18 152.639 1125.91 173.045C1087.47 190.787 1046.44 208.926 1004.79 222.629C981.644 230.311 957.147 236.664 931.677 241.59C913.048 245.148 889.36 250.457 869.827 247.807C820.568 241.118 838.788 189.116 847.395 168.006Z" stroke="white" stroke-width="5"/>
<path d="M884.489 154.785C923.973 71.2905 1049.07 30.2299 1169.53 15.9146C1197.51 12.592 1275.97 0.613465 1291.62 26.1186C1306.79 50.8474 1258.56 80.1744 1236 94.0694C1166.05 137.126 1079.63 169.047 997.736 200.673C972.174 210.544 926.075 231.966 894.365 222.085C859.942 211.333 876.309 172.098 884.489 154.785Z" stroke="white" stroke-width="5"/>
<path d="M924.934 138.714C959.274 77.2281 1059.15 41.9635 1150.97 30.3348C1173.46 27.4903 1230.58 18.6329 1247.62 35.7938C1263.38 51.6662 1225.76 74.6651 1211.69 83.8038C1180.36 104.156 1143.23 120.92 1106.54 137.034C1072.62 151.944 1038.34 167.226 1002.64 179.835C983.849 186.471 948.591 200.633 927.227 190.385C904.222 179.362 917.311 152.368 924.934 138.714Z" stroke="white" stroke-width="5"/>
<path d="M969.502 120.751C995.674 80.5981 1065.77 54.5237 1127.6 45.8587C1144.24 43.5304 1180.2 37.4969 1194.24 48.2204C1207.16 58.0959 1186.33 72.5739 1177.09 79.2604C1136.13 108.897 1076.14 135.37 1021.18 151.63C1007.36 155.718 982.521 163.741 968.305 155.49C953.724 147.018 963.494 129.972 969.502 120.751Z" stroke="white" stroke-width="5"/>
<path d="M1016.78 103.885C1031.53 83.9462 1070.08 68.9048 1102 64.1121C1124.48 60.7423 1151.48 63.6536 1131.9 81.0095C1112.45 98.2372 1076.35 113.967 1045.76 120.94C1022.41 126.259 1004.12 121.012 1016.78 103.885Z" stroke="white" stroke-width="5"/>
<path d="M-179.138 241.981C-180.085 202.587 -211.029 161.651 -195.746 121.512C-183.197 88.5464 -120.018 85.7941 -82.1114 70.8603C-51.9895 58.9947 -34.9004 37.9759 -18.6164 17.8073C-3.98574 -0.297998 9.16369 -18.9481 24.5803 -36.7567C34.5597 -48.2693 51.6977 -70.8759 73.3405 -71.284C94.0595 -71.6773 113.059 -54.0591 125.096 -43.6467C140.792 -30.0723 154.7 -15.6012 169.938 -1.81007C195.617 21.4522 226.424 38.6708 261.709 54.9662C301.86 73.5126 342.672 91.4224 384.146 108.695C414.682 121.453 445.426 134.115 474.777 148.133C493.184 156.929 533.814 173.43 534.005 189.645C534.095 197.383 523.259 205.951 515.952 212.137C503.59 222.606 489.498 232.177 475.362 241.545C449.035 258.99 421.59 275.644 394.447 292.499C359.208 314.374 325.551 335.889 294.577 360.726C262.551 386.431 231.956 412.984 200.735 439.177C179.591 456.92 158.469 476.845 127.971 487.732C89.7717 501.342 58.4172 486.99 19.7856 486.825C-13.446 486.679 -10.9951 434.58 -15.2189 420.094C-19.457 405.431 -28.7976 391.781 -32.4151 377.085C-36.9286 358.737 -36.9879 339.966 -38.0981 321.423C-39.4454 298.739 -39.9771 277.146 -75.8135 268.497C-96.2056 263.582 -118.26 262.549 -139.374 259.605C-153.048 257.692 -178.841 254.426 -179.138 241.981Z" stroke="white" stroke-width="5"/>
<path d="M-162.8 234.976C-166.283 201.953 -186.862 159.693 -167.402 125.608C-150.775 96.4799 -98.7785 92.7036 -63.7663 77.403C-34.8627 64.7822 -21.9954 44.1302 -7.5484 23.8423C4.04228 7.56707 15.284 -8.86503 28.441 -24.6193C38.1374 -36.23 52.9439 -55.832 73.1055 -58.2351C91.2341 -60.3959 110.669 -43.0909 120.843 -34.2865C135.686 -21.434 148.383 -7.47595 161.496 6.18905C184.535 30.1927 208.134 51.7786 241.848 69.4117C275.72 87.118 312.776 100.364 350.228 114.144C379.526 124.927 408.677 136.022 436.514 148.47C457.252 157.739 487.066 169.602 496.553 186.13C504.07 199.205 465.971 220.902 454.738 228.559C431.615 244.304 407.112 259.087 382.564 273.774C352.639 291.675 321.758 307.329 295.33 327.75C248.063 364.257 208.549 409.722 147.731 436.857C111.05 453.22 70.2263 457.407 29.425 454.958C13.2644 453.989 9.38967 438.556 7.35379 429.556C3.96676 414.603 3.54215 399.393 0.946899 384.38C-1.49252 370.326 -6.90679 356.973 -11.2711 343.192C-15.687 329.229 -16.9254 314.923 -20.1776 300.864C-22.1915 292.136 -24.1834 281.978 -32.9914 274.962C-42.1064 267.697 -57.1434 264.654 -70.2851 262.341C-94.9764 258.04 -160.34 258.278 -162.8 234.976Z" stroke="white" stroke-width="5"/>
<path d="M-141.775 221.152C-147.634 190.842 -155.832 153.091 -131.968 125.166C-112.461 102.332 -70.8564 97.4068 -41.139 82.5292C-16.4229 70.1568 -7.08602 50.4801 5.17693 32.1945C15.2434 17.1955 25.3634 2.13186 37.5651 -12.141C46.8187 -22.9647 58.7442 -37.6415 77.1175 -41.4172C92.8258 -44.6433 110.574 -30.1896 119.281 -22.9954C134.11 -10.7344 146.2 3.00372 158.207 16.5606C177.846 38.7453 195.919 62.4363 223.879 80.4823C251.043 97.9913 283.312 108.327 316.185 119.948C341.364 128.852 366.388 138.098 390.111 148.715C408.327 156.863 430.899 166.517 440.394 180.074C448.603 191.765 427.529 205.604 416.998 213.852C399.611 227.464 380.311 239.951 361.286 252.489C340.749 266.016 318.003 278.493 298.13 292.352C256.342 321.515 222.95 353.809 171.442 376.153C138.086 390.628 93.1969 403.776 53.764 401.413C25.4064 399.709 27.2711 357.249 24.5477 343.682C20.0696 321.499 11.4213 298.192 -2.31335 277.759C-14.1125 260.249 -42.1498 254.85 -67.9408 250.924C-84.1014 248.458 -101.027 247.125 -116.658 243.316C-134.752 238.898 -139.319 233.857 -141.775 221.152Z" stroke="white" stroke-width="5"/>
<path d="M-122.159 206.945C-125.646 181.32 -124.863 151.017 -102.269 128.851C-82.468 109.435 -47.2149 104.323 -22.141 89.0275C-2.57518 77.0946 5.11211 57.6377 15.6366 41.8575C28.4982 22.5655 46.5235 -13.0738 78.9671 -20.3354C109.144 -27.086 140.713 16.0348 151.642 28.8926C168.941 49.2446 183.408 71.5629 204.388 90.3567C222.455 106.537 246.663 115.481 272.356 125.095C305.118 137.371 354.853 151.93 372.369 175.854C385.424 193.682 342.965 220.187 328.477 232.54C313.314 245.444 301.893 260.739 286.251 273.188C261.554 292.833 221.542 308.649 188.507 320.719C156.384 332.459 114.677 345.454 78.2433 344.679C54.294 344.173 49.7413 319.155 44.6359 306.933C37.3158 289.56 27.584 273.992 6.67752 262.175C-14.601 250.144 -39.6824 244.479 -66.0491 239.518C-79.583 236.99 -95.0235 235.018 -107.129 229.911C-120.509 224.354 -120.815 216.795 -122.159 206.945Z" stroke="white" stroke-width="5"/>
<path d="M-98.2624 192.175C-98.0711 170.036 -90.5866 146.429 -68.4016 129.352C-49.924 115.128 -21.0002 110.374 -3.31155 95.8331C10.6994 84.3209 17.8311 68.1602 27.212 54.7915C38.687 38.4086 54.9069 9.79024 83.4395 4.10442C111.284 -1.43037 135.911 30.0919 146.586 42.5649C162.22 60.8542 174.877 80.2405 190.652 98.4799C203.011 112.79 218.123 122.012 238.248 131.234C261.867 142.067 294.829 154.067 307.446 171.991C316.544 184.967 294.521 205.699 286.526 217.133C281.166 224.811 276.259 232.609 273.564 240.93C271.46 247.411 271.256 253.408 265.174 258.973C249.859 272.969 216.283 274.797 193.502 279.411C163.245 285.534 131.143 292.493 99.4796 293.821C80.0189 294.651 70.0873 282.519 58.9805 273.986C45.855 263.898 27.2732 256.643 11.0427 249.03C-10.3773 238.967 -33.6859 232.706 -57.8006 226.3C-68.6779 223.407 -81.4563 220.569 -89.8799 214.818C-98.6793 208.854 -98.3303 200.165 -98.2624 192.175Z" stroke="white" stroke-width="5"/>
<path d="M-73.1646 179.031C-69.3185 160.438 -57.3348 142.667 -37.0939 129.523C-21.5777 119.431 -0.971515 113.75 11.4836 101.625C23.0906 90.3228 31.1728 77.4713 40.7564 65.3873C50.8993 52.6117 65.9679 31.258 89.3607 27.7817C114.572 24.0378 133.994 45.5775 144.748 57.5147C158.333 72.6017 168.654 88.8329 180.798 104.439C189.648 115.799 201.303 126.422 215.429 136.003C229.909 145.796 249.546 155.179 256.873 168.644C263.349 180.572 251.231 195.002 249.092 207.097C246.803 220.019 250.813 233.591 238.129 244.687C211.974 267.567 146.325 263.324 108.795 263.813C71.7647 264.318 41.9918 250.316 12.023 236.995C-7.77143 228.2 -28.3834 220.753 -48.6779 212.559C-69.3625 204.199 -76.5468 195.394 -73.1646 179.031Z" stroke="white" stroke-width="5"/>
<path d="M-49.8438 168.386C-38.4711 141.45 -2.95407 127.133 22.4363 106.777C43.2108 90.1128 58.7881 55.6014 93.7725 51.0354C133.496 45.8541 157.275 91.5804 171.086 109.226C186.414 128.794 213.706 144.712 225.055 165.427C231.024 176.299 225.897 186.442 222.722 197.312C219.24 209.251 216.621 221.448 204.602 231.054C180.94 249.956 134.734 249.824 101.45 250.344C66.9994 250.885 36.5209 237.931 9.0765 225.004C-20.0385 211.313 -61.4909 196.012 -49.8438 168.386Z" stroke="white" stroke-width="5"/>
<path d="M-30.802 161.084C-17.9882 141.893 8.93881 126.291 30.7901 111.563C49.0296 99.2836 68.6471 74.5654 96.451 72.8037C129.133 70.7266 148.94 97.1196 161.799 113.307C174.456 129.207 192.693 145.999 199.701 163.453C207.009 181.635 187.547 206.125 168.987 218.991C148.29 233.336 114.423 238.636 85.3623 238.065C54.9354 237.482 27.0158 225.628 3.97205 213.327C-20.6657 200.18 -45.6994 183.363 -30.802 161.084Z" stroke="white" stroke-width="5"/>
<path d="M-13.123 157.472C-0.882961 141.51 20.3343 128.007 39.8973 115.963C54.9955 106.664 77.2723 90.8527 99.0557 90.4652C123.017 90.0365 143.324 103.309 152.85 116.912C162.236 130.33 172.131 147.153 173.535 161.873C176.59 193.928 114.443 229.836 67.7758 226.913C23.532 224.139 -37.5274 189.278 -13.123 157.472Z" stroke="white" stroke-width="5"/>
<path d="M3.22161 155.712C20.108 134.914 61.1235 105.265 99.0952 104.561C142.68 103.756 153.623 136.75 147.941 160.661C142.17 185.064 91.9186 220.387 51.8498 215.614C12.7421 210.957 -16.7908 180.377 3.22161 155.712Z" stroke="white" stroke-width="5"/>
<path d="M20.478 152.348C34.7739 134.935 65.2821 113.185 97.1023 112.525C135.018 111.747 134.3 139.605 125.704 156.939C116.765 174.941 77.3883 205.688 44.1911 200.834C11.91 196.095 6.77781 169.038 20.478 152.348Z" stroke="white" stroke-width="5"/>
<path d="M35.5098 150.345C44.9471 137.92 68.5617 122.216 91.0173 121.712C118.462 121.109 113.126 143.204 106.035 153.867C97.6068 166.556 69.3563 188.604 45.649 185.032C22.3069 181.515 27.7241 160.583 35.5098 150.345Z" stroke="white" stroke-width="5"/>
</g>
</g>
<defs>
<linearGradient id="paint0_linear_2_270" x1="0" y1="0" x2="581.085" y2="891.997" gradientUnits="userSpaceOnUse">
<stop stop-color="#581689"/>
<stop offset="1" stop-color="#00C3FF"/>
</linearGradient>
</defs>
</svg>
