<svg width="32" height="32" viewBox="0 0 32 32" fill="none" xmlns="http://www.w3.org/2000/svg">
<g clip-path="url(#clip0_2_186)">
<rect x="31" y="1" width="30" height="30" rx="15" transform="rotate(90 31 1)" stroke="#E6E8EC" stroke-width="2"/>
<path fill-rule="evenodd" clip-rule="evenodd" d="M20.7348 18.0909C21.1094 18.4968 21.0841 19.1294 20.6783 19.504L17.1783 22.7348C16.7953 23.0884 16.2048 23.0884 15.8218 22.7348L12.3217 19.504C11.9159 19.1294 11.8906 18.4968 12.2652 18.0909C12.6398 17.6851 13.2724 17.6598 13.6783 18.0344L15.5 19.716L15.5 10C15.5 9.44771 15.9477 9 16.5 9C17.0523 9 17.5 9.44771 17.5 10L17.5 19.716L19.3217 18.0344C19.7275 17.6598 20.3602 17.6851 20.7348 18.0909Z" fill="#B1B5C3"/>
</g>
<defs>
<clipPath id="clip0_2_186">
<rect width="32" height="32" fill="white" transform="translate(32) rotate(90)"/>
</clipPath>
</defs>
</svg>
