<svg width="8" height="12" viewBox="0 0 8 12" fill="none" xmlns="http://www.w3.org/2000/svg">
<path d="M7.3101 6.84766C7.45072 6.70703 7.55619 6.49609 7.55619 6.25C7.55619 6.03906 7.45072 5.82812 7.3101 5.65234L2.52885 0.871094C2.35306 0.730469 2.14213 0.625 1.93119 0.625C1.6851 0.625 1.47416 0.730469 1.33353 0.871094L0.560096 1.67969C0.384315 1.85547 0.314002 2.06641 0.314002 2.27734C0.314002 2.52344 0.384315 2.73438 0.560096 2.875L3.9351 6.25L0.560096 9.625C0.384315 9.80078 0.314002 10.0117 0.314002 10.2227C0.314002 10.4688 0.384315 10.6797 0.560096 10.8203L1.33353 11.6289C1.47416 11.8047 1.6851 11.875 1.93119 11.875C2.14213 11.875 2.35306 11.8047 2.52885 11.6289L7.3101 6.84766Z" fill="#080524"/>
</svg>
