<svg width="20" height="20" viewBox="0 0 20 20" fill="none" xmlns="http://www.w3.org/2000/svg">
<path fill-rule="evenodd" clip-rule="evenodd" d="M10.0003 16.6666C13.6823 16.6666 16.667 13.6819 16.667 9.99996C16.667 6.31806 13.6823 3.3333 10.0003 3.3333C6.31842 3.3333 3.33366 6.31806 3.33366 9.99996C3.33366 13.6819 6.31842 16.6666 10.0003 16.6666ZM10.0003 18.3333C14.6027 18.3333 18.3337 14.6023 18.3337 9.99996C18.3337 5.39759 14.6027 1.66663 10.0003 1.66663C5.39795 1.66663 1.66699 5.39759 1.66699 9.99996C1.66699 14.6023 5.39795 18.3333 10.0003 18.3333Z" fill="#777E90"/>
<path d="M10.0003 8.33337C10.0003 7.87314 10.3734 7.50004 10.8337 7.50004H11.667C12.1272 7.50004 12.5003 7.12695 12.5003 6.6667C12.5003 6.20647 12.1272 5.83337 11.667 5.83337H10.8337C9.45291 5.83337 8.33366 6.95266 8.33366 8.33337V10H7.50033C7.04009 10 6.66699 10.3731 6.66699 10.8334C6.66699 11.2936 7.04008 11.6667 7.50033 11.6667H8.33366V16.6666C8.33366 17.1269 8.70674 17.5 9.16699 17.5C9.62724 17.5 10.0003 17.1269 10.0003 16.6666V11.6667H11.667C12.1272 11.6667 12.5003 11.2936 12.5003 10.8334C12.5003 10.3731 12.1272 10 11.667 10H10.0003V8.33337Z" fill="#777E90"/>
</svg>
