<svg width="43" height="39" viewBox="0 0 43 39" fill="none" xmlns="http://www.w3.org/2000/svg">
<g clip-path="url(#clip0_2_569)">
<path d="M18.2178 6.5H10.2197C8.50459 6.5 7.10937 5.22437 7.10937 3.65625C7.10937 2.9835 6.51219 2.4375 5.77637 2.4375C5.04055 2.4375 4.44336 1.8915 4.44336 1.21875C4.44336 0.546 5.04055 0 5.77637 0C7.98205 0 9.77538 1.63962 9.77538 3.65625C9.77538 3.8805 9.97445 4.0625 10.2197 4.0625H18.2178C18.463 4.0625 18.6621 3.8805 18.6621 3.65625C18.6621 1.63962 20.4554 0 22.6611 0C23.3969 0 23.9941 0.546 23.9941 1.21875C23.9941 1.8915 23.3969 2.4375 22.6611 2.4375C21.9253 2.4375 21.3281 2.9835 21.3281 3.65625C21.3281 5.22437 19.9329 6.5 18.2178 6.5Z" fill="#00C3FF"/>
<path d="M23.5498 39H4.88769C2.19146 39 0 36.9964 0 34.5312V4.46875C0 2.00363 2.19146 0 4.88769 0H23.5498C26.246 0 28.4375 2.00363 28.4375 4.46875V4.85875C28.4375 5.5315 27.8403 6.0775 27.1045 6.0775C26.3687 6.0775 25.7715 5.5315 25.7715 4.85875V4.46875C25.7715 3.34912 24.7744 2.4375 23.5498 2.4375H4.88769C3.6631 2.4375 2.66601 3.34912 2.66601 4.46875V34.5312C2.66601 35.6509 3.6631 36.5625 4.88769 36.5625H23.5498C24.7744 36.5625 25.7715 35.6509 25.7715 34.5312V33.735C25.7715 33.0623 26.3687 32.5163 27.1045 32.5163C27.8403 32.5163 28.4375 33.0623 28.4375 33.735V34.5312C28.4375 36.9964 26.246 39 23.5498 39Z" fill="#00C3FF"/>
<path d="M31.9922 30.8747C31.8145 30.8747 31.6367 30.8422 31.4714 30.7772C31.0573 30.6163 21.3281 26.7439 21.3281 18.7749V12.2457C21.3281 11.724 21.6925 11.2609 22.231 11.0919L31.5621 8.18965C31.8411 8.1019 32.1415 8.1019 32.4205 8.18965L41.7516 11.0919C42.2919 11.2593 42.6562 11.7224 42.6562 12.2457V18.7749C42.6562 26.7439 32.9271 30.6179 32.5129 30.7788C32.3477 30.8422 32.1699 30.8747 31.9922 30.8747ZM23.9941 13.1183V18.7749C23.9941 24.2154 30.1366 27.454 31.9904 28.3072C33.8424 27.4492 39.9902 24.1943 39.9902 18.7749V13.1183L31.9922 10.6304L23.9941 13.1183Z" fill="#00C3FF"/>
<path d="M31.5484 23.5629C31.1965 23.5629 30.857 23.4345 30.6064 23.2054L27.0517 19.9554C26.5309 19.4793 26.5309 18.7074 27.0517 18.2313C27.5725 17.7551 28.4167 17.7551 28.9375 18.2313L31.4062 20.4884L35.814 15.1129C36.2583 14.575 37.0919 14.4661 37.6802 14.8691C38.2685 15.2738 38.3876 16.0375 37.9468 16.5754L32.6148 23.0754C32.3837 23.3581 32.0283 23.5353 31.6426 23.5596C31.6106 23.5629 31.5804 23.5629 31.5484 23.5629Z" fill="#00C3FF"/>
</g>
<defs>
<clipPath id="clip0_2_569">
<rect width="42.6562" height="39" fill="white"/>
</clipPath>
</defs>
</svg>
