<svg width="43" height="40" viewBox="0 0 43 40" fill="none" xmlns="http://www.w3.org/2000/svg">
<g clip-path="url(#clip0_2_577)">
<path d="M23.9941 34.8163C23.2583 34.8163 22.6611 34.2563 22.6611 33.5663V27.0829C22.6611 26.3929 23.2583 25.8329 23.9941 25.8329C24.73 25.8329 25.3271 26.3929 25.3271 27.0829V33.5663C25.3271 34.2563 24.73 34.8163 23.9941 34.8163Z" fill="#00C3FF"/>
<path d="M18.6621 24.1663C17.9263 24.1663 17.3291 23.6063 17.3291 22.9163V19.5829C17.3291 17.5163 19.1224 15.8329 21.3281 15.8329C23.5338 15.8329 25.3271 17.5163 25.3271 19.5829V22.8929C25.3271 23.5829 24.73 24.1429 23.9941 24.1429C23.2583 24.1429 22.6611 23.5829 22.6611 22.8929V19.5829C22.6611 18.8946 22.0639 18.3329 21.3281 18.3329C20.5923 18.3329 19.9951 18.8946 19.9951 19.5829V22.9163C19.9951 23.6063 19.3979 24.1663 18.6621 24.1663Z" fill="#00C3FF"/>
<path d="M18.6621 34.8163C17.9263 34.8163 17.3291 34.2563 17.3291 33.5663V27.0829C17.3291 26.3929 17.9263 25.8329 18.6621 25.8329C19.3979 25.8329 19.9951 26.3929 19.9951 27.0829V33.5663C19.9951 34.2563 19.3979 34.8163 18.6621 34.8163Z" fill="#00C3FF"/>
<path d="M29.3265 33.2996C28.5906 33.2996 27.9935 32.7396 27.9935 32.0496V19.583C27.9935 18.863 27.8655 18.1596 27.6113 17.4863C27.3661 16.8346 27.7286 16.123 28.4236 15.8913C29.1221 15.663 29.881 16.0013 30.1263 16.653C30.4818 17.5913 30.6613 18.578 30.6613 19.583V32.0496C30.6595 32.7413 30.0623 33.2996 29.3265 33.2996Z" fill="#00C3FF"/>
<path d="M26.9798 15.533C26.6349 15.533 26.2919 15.4097 26.0307 15.1597C25.5259 14.6813 24.9411 14.2847 24.2889 13.9797C22.0903 12.9547 19.3336 13.1797 17.3466 14.5647C16.7547 14.9797 15.9194 14.863 15.4804 14.308C15.0396 13.7547 15.164 12.9713 15.7541 12.5597C18.5232 10.6297 22.4067 10.3097 25.4761 11.7413C26.3932 12.1697 27.2179 12.7297 27.9306 13.4063C28.4478 13.898 28.4407 14.6897 27.9164 15.1747C27.6569 15.413 27.3174 15.533 26.9798 15.533Z" fill="#00C3FF"/>
<path d="M13.3301 33.2996C12.5943 33.2996 11.9971 32.7396 11.9971 32.0496V19.5829C11.9971 18.2196 12.3205 16.9129 12.9604 15.7029C13.2874 15.0829 14.0837 14.8246 14.7466 15.1363C15.406 15.4413 15.6762 16.1913 15.3509 16.8096C14.8941 17.6729 14.6631 18.6063 14.6631 19.5829V32.0496C14.6631 32.7413 14.0659 33.2996 13.3301 33.2996Z" fill="#00C3FF"/>
<path d="M34.6578 29.7333C33.9219 29.7333 33.3247 29.1733 33.3247 28.4833V19.5833C33.3247 16.5833 32.0753 13.7616 29.8056 11.6333C29.2848 11.145 29.2848 10.3533 29.8056 9.86497C30.3264 9.37663 31.1706 9.37663 31.6914 9.86497C34.4658 12.465 35.9925 15.915 35.9925 19.5816V28.4816C35.9908 29.1733 35.3936 29.7333 34.6578 29.7333Z" fill="#00C3FF"/>
<path d="M27.5323 9.7713C27.3208 9.7713 27.1093 9.72463 26.9084 9.6263C23.7163 8.03963 19.8328 7.91463 16.5288 9.26963C15.8534 9.5413 15.0678 9.2563 14.7727 8.62463C14.4777 7.9913 14.7852 7.2563 15.4588 6.97797C19.472 5.33464 24.2762 5.49297 28.1561 7.4163C28.8067 7.73963 29.0537 8.49463 28.7107 9.1063C28.4725 9.5313 28.0086 9.7713 27.5323 9.7713Z" fill="#00C3FF"/>
<path d="M7.99805 29.7329C7.26223 29.7329 6.66504 29.1729 6.66504 28.4829V19.5829C6.66504 15.8296 8.24865 12.3246 11.1244 9.70959C11.6523 9.22959 12.4983 9.24125 13.0102 9.73958C13.522 10.2346 13.5096 11.0246 12.9799 11.5079C10.6267 13.6446 9.33105 16.5129 9.33105 19.5829V28.4829C9.33105 29.1729 8.73387 29.7329 7.99805 29.7329Z" fill="#00C3FF"/>
<path d="M37.7685 40H4.88769C2.19146 40 0 37.945 0 35.4167V4.58333C0 2.055 2.19146 0 4.88769 0H37.7685C40.4648 0 42.6562 2.055 42.6562 4.58333V35.4167C42.6562 37.945 40.4648 40 37.7685 40ZM4.88769 2.5C3.6631 2.5 2.66601 3.435 2.66601 4.58333V35.4167C2.66601 36.565 3.6631 37.5 4.88769 37.5H37.7685C38.9931 37.5 39.9902 36.565 39.9902 35.4167V4.58333C39.9902 3.435 38.9931 2.5 37.7685 2.5H4.88769Z" fill="#00C3FF"/>
</g>
<defs>
<clipPath id="clip0_2_577">
<rect width="42.6562" height="40" fill="white"/>
</clipPath>
</defs>
</svg>
