<svg width="42" height="40" viewBox="0 0 42 40" fill="none" xmlns="http://www.w3.org/2000/svg">
<g clip-path="url(#clip0_2_591)">
<path d="M38.5319 35.0004H3.0306C1.35944 35.0004 0 33.6921 0 32.0837V9.58372C0 7.97539 1.35944 6.66705 3.0306 6.66705H5.62825C6.34521 6.66705 6.92708 7.22705 6.92708 7.91705C6.92708 8.60705 6.34521 9.16705 5.62825 9.16705H3.0306C2.79508 9.16705 2.59766 9.35705 2.59766 9.58372V32.0837C2.59766 32.3104 2.79508 32.5004 3.0306 32.5004H38.5319C38.7674 32.5004 38.9648 32.3104 38.9648 32.0837V9.58372C38.9648 9.35705 38.7674 9.16705 38.5319 9.16705H35.9342C35.2173 9.16705 34.6354 8.60705 34.6354 7.91705C34.6354 7.22705 35.2173 6.66705 35.9342 6.66705H38.5319C40.203 6.66705 41.5625 7.97539 41.5625 9.58372V32.0837C41.5625 33.6921 40.203 35.0004 38.5319 35.0004Z" fill="#00C3FF"/>
<path d="M40.2637 29.1671H1.29883C0.581875 29.1671 0 28.6071 0 27.9171C0 27.2271 0.581875 26.6671 1.29883 26.6671H40.2637C40.9806 26.6671 41.5625 27.2271 41.5625 27.9171C41.5625 28.6071 40.9806 29.1671 40.2637 29.1671Z" fill="#00C3FF"/>
<path d="M26.4104 39.9995H15.1539C14.6292 39.9995 14.1547 39.6945 13.9538 39.2279C13.7529 38.7612 13.8638 38.2229 14.2361 37.8662C16.0389 36.1312 16.4268 33.6129 16.4303 33.5879C16.5238 32.9029 17.1836 32.4262 17.8867 32.5112C18.5984 32.6012 19.0989 33.2295 19.0054 33.9129C18.9915 34.0112 18.7508 35.6895 17.717 37.4995H23.818C22.7945 35.6979 22.5399 34.0195 22.5261 33.9212C22.4274 33.2379 22.9227 32.6062 23.6344 32.5112C24.3566 32.4179 24.9991 32.8929 25.0995 33.5745C25.1116 33.6495 25.5013 36.0229 27.1499 37.7212C27.4876 37.9479 27.7093 38.3229 27.7093 38.7495C27.7093 39.4395 27.1274 39.9995 26.4104 39.9995Z" fill="#00C3FF"/>
<path d="M20.7812 23.3334C20.6081 23.3334 20.4349 23.3 20.2738 23.2334C19.8703 23.0684 10.3906 19.0967 10.3906 10.9234V4.22671C10.3906 3.69171 10.7456 3.21671 11.2704 3.04337L20.3622 0.0667065C20.634 -0.0232935 20.9267 -0.0232935 21.1986 0.0667065L30.2904 3.04337C30.8169 3.21504 31.1719 3.69004 31.1719 4.22671V10.9234C31.1719 19.0967 21.6922 23.07 21.2887 23.235C21.1276 23.3 20.9544 23.3334 20.7812 23.3334ZM12.9883 5.12171V10.9234C12.9883 16.5034 18.9733 19.825 20.7795 20.7C22.584 19.82 28.5742 16.4817 28.5742 10.9234V5.12171L20.7812 2.57004L12.9883 5.12171Z" fill="#00C3FF"/>
<path d="M19.9153 15.8335C19.5724 15.8335 19.2416 15.7018 18.9974 15.4668L15.5339 12.1335C15.0265 11.6452 15.0265 10.8535 15.5339 10.3652C16.0413 9.87683 16.8639 9.87683 17.3713 10.3652L19.7767 12.6802L24.0715 7.16683C24.5027 6.61516 25.3167 6.50516 25.8899 6.91683C26.4631 7.33183 26.5791 8.11516 26.1496 8.66683L20.9543 15.3335C20.7292 15.6235 20.3828 15.8052 20.007 15.8302C19.9759 15.8335 19.9464 15.8335 19.9153 15.8335Z" fill="#00C3FF"/>
</g>
<defs>
<clipPath id="clip0_2_591">
<rect width="41.5625" height="40" fill="white"/>
</clipPath>
</defs>
</svg>
