<svg width="43" height="38" viewBox="0 0 43 38" fill="none" xmlns="http://www.w3.org/2000/svg">
<g clip-path="url(#clip0_2_601)">
<path d="M6.2207 34.6985H1.33301C0.597187 34.6985 0 34.1686 0 33.5156V20.1094C0 19.4564 0.597187 18.9265 1.33301 18.9265C7.56437 18.9265 10.465 20.8459 10.5841 20.9279C11.0142 21.2197 11.2044 21.7134 11.0622 22.1771L7.5075 33.8263C7.35109 34.3405 6.82322 34.6985 6.2207 34.6985ZM2.66602 32.3327H5.20051L8.21844 22.442C7.28889 22.0525 5.47244 21.4721 2.66602 21.327V32.3327Z" fill="#00C3FF"/>
<path d="M23.105 37.8529C19.09 37.8529 11.6891 35.1259 6.18649 32.8358C5.51999 32.5582 5.23384 31.8532 5.54665 31.2618C5.85768 30.6703 6.65393 30.4132 7.31866 30.6924C14.6413 33.7411 20.3964 35.4871 23.105 35.4871C26.7095 35.4871 34.8924 32.0315 39.1811 30.0379C38.687 29.7871 37.9512 29.5726 36.8794 29.5726C35.3154 29.5726 33.387 30.1404 31.5225 30.6893C30.9165 30.8675 30.3122 31.0457 29.7132 31.2082C28.3944 31.5693 26.8374 31.9384 25.3249 31.9384C21.5801 31.9384 16.6355 30.358 16.4275 30.2902C15.7344 30.0663 15.3771 29.3881 15.6295 28.7745C15.8819 28.1594 16.6479 27.8456 17.3375 28.0664C17.3838 28.0821 22.0511 29.5726 25.3249 29.5726C26.4909 29.5726 27.8647 29.2382 28.9312 28.9464C29.5106 28.7887 30.0953 28.6168 30.6801 28.4449C32.7453 27.8361 34.8799 27.2068 36.8759 27.2068C41.2819 27.2068 42.5065 29.8108 42.5563 29.9227C42.8069 30.4763 42.5509 31.1088 41.9626 31.3974C41.4294 31.6608 28.7161 37.8529 23.105 37.8529Z" fill="#00C3FF"/>
<path d="M29.3264 31.2916C28.5906 31.2916 27.9934 30.7616 27.9934 30.1087V29.3989C27.9934 28.4668 27.2451 27.653 26.216 27.4669L9.09845 24.3598C8.37863 24.2288 7.91296 23.6043 8.06048 22.9639C8.208 22.3236 8.91361 21.9151 9.63343 22.0428L26.751 25.1499C29.0154 25.56 30.6594 27.3486 30.6594 29.4005V30.1102C30.6594 30.7616 30.0622 31.2916 29.3264 31.2916Z" fill="#00C3FF"/>
<path d="M31.9922 22.0809C31.8145 22.0809 31.6385 22.0494 31.4714 21.9863C31.0573 21.8302 21.3281 18.0717 21.3281 10.3371V3.99985C21.3281 3.49357 21.6907 3.04406 22.2328 2.88003L31.5638 0.0631444C31.8411 -0.0220247 32.1433 -0.0220247 32.4205 0.0631444L41.7516 2.88003C42.2937 3.04249 42.6562 3.49199 42.6562 3.99985V10.3371C42.6562 18.0717 32.9271 21.8317 32.5129 21.9879C32.3459 22.0494 32.1699 22.0809 31.9922 22.0809ZM23.9941 4.84681V10.3371C23.9941 15.6175 30.1349 18.7609 31.9904 19.589C33.8424 18.7562 39.9902 15.597 39.9902 10.3371V4.84681L31.9922 2.43211L23.9941 4.84681Z" fill="#00C3FF"/>
<path d="M31.5484 14.9838C31.1965 14.9838 30.8552 14.8592 30.6064 14.6368L27.0517 11.4824C26.5309 11.0203 26.5309 10.2711 27.0517 9.80899C27.5725 9.34687 28.4167 9.34687 28.9375 9.80899L31.4062 11.9997L35.814 6.78234C36.2512 6.26028 37.0883 6.15303 37.6802 6.54576C38.2685 6.93848 38.3876 7.67977 37.945 8.20182L32.613 14.5106C32.382 14.7851 32.0283 14.957 31.6408 14.9806C31.6106 14.9838 31.5804 14.9838 31.5484 14.9838Z" fill="#00C3FF"/>
</g>
<defs>
<clipPath id="clip0_2_601">
<rect width="42.6562" height="37.8529" fill="white"/>
</clipPath>
</defs>
</svg>
