<svg width="33" height="28" viewBox="0 0 33 28" fill="none" xmlns="http://www.w3.org/2000/svg">
<path d="M27.4365 10.8409H5.21973C2.5235 10.8409 0.332031 8.83724 0.332031 6.37212V4.74712C0.332031 2.282 2.5235 0.278381 5.21973 0.278381H27.4365C30.1327 0.278381 32.3242 2.282 32.3242 4.74712V6.37212C32.3242 8.83724 30.1327 10.8409 27.4365 10.8409ZM5.21973 2.71588C3.99514 2.71588 2.99805 3.6275 2.99805 4.74712V6.37212C2.99805 7.49175 3.99514 8.40337 5.21973 8.40337H27.4365C28.6611 8.40337 29.6582 7.49175 29.6582 6.37212V4.74712C29.6582 3.6275 28.6611 2.71588 27.4365 2.71588H5.21973Z" fill="#00C3FF"/>
<path d="M27.4365 18.9659H5.21973C2.5235 18.9659 0.332031 16.9622 0.332031 14.4971V12.8721C0.332031 10.407 2.5235 8.40338 5.21973 8.40338H27.4365C30.1327 8.40338 32.3242 10.407 32.3242 12.8721V14.4971C32.3242 16.9622 30.1327 18.9659 27.4365 18.9659ZM5.21973 10.8409C3.99514 10.8409 2.99805 11.7525 2.99805 12.8721V14.4971C2.99805 15.6167 3.99514 16.5284 5.21973 16.5284H27.4365C28.6611 16.5284 29.6582 15.6167 29.6582 14.4971V12.8721C29.6582 11.7525 28.6611 10.8409 27.4365 10.8409H5.21973Z" fill="#00C3FF"/>
<path d="M27.4365 27.0909H5.21973C2.5235 27.0909 0.332031 25.0872 0.332031 22.6221V20.9971C0.332031 18.532 2.5235 16.5284 5.21973 16.5284H27.4365C30.1327 16.5284 32.3242 18.532 32.3242 20.9971V22.6221C32.3242 25.0872 30.1327 27.0909 27.4365 27.0909ZM5.21973 18.9659C3.99514 18.9659 2.99805 19.8775 2.99805 20.9971V22.6221C2.99805 23.7417 3.99514 24.6534 5.21973 24.6534H27.4365C28.6611 24.6534 29.6582 23.7417 29.6582 22.6221V20.9971C29.6582 19.8775 28.6611 18.9659 27.4365 18.9659H5.21973Z" fill="#00C3FF"/>
<path d="M11.4404 6.77838H6.99707C6.26125 6.77838 5.66406 6.23238 5.66406 5.55963C5.66406 4.88688 6.26125 4.34088 6.99707 4.34088H11.4404C12.1762 4.34088 12.7734 4.88688 12.7734 5.55963C12.7734 6.23238 12.1762 6.77838 11.4404 6.77838Z" fill="#00C3FF"/>
<path d="M11.4404 14.9034H6.99707C6.26125 14.9034 5.66406 14.3574 5.66406 13.6846C5.66406 13.0119 6.26125 12.4659 6.99707 12.4659H11.4404C12.1762 12.4659 12.7734 13.0119 12.7734 13.6846C12.7734 14.3574 12.1762 14.9034 11.4404 14.9034Z" fill="#00C3FF"/>
<path d="M11.4404 23.0295H6.99707C6.26125 23.0295 5.66406 22.4835 5.66406 21.8108C5.66406 21.138 6.26125 20.592 6.99707 20.592H11.4404C12.1762 20.592 12.7734 21.138 12.7734 21.8108C12.7734 22.4835 12.1762 23.0295 11.4404 23.0295Z" fill="#00C3FF"/>
</svg>
