<svg width="43" height="39" viewBox="0 0 43 39" fill="none" xmlns="http://www.w3.org/2000/svg">
<g clip-path="url(#clip0_2_621)">
<path d="M31.1035 38.9997C24.7335 38.9997 19.5508 34.2612 19.5508 28.4372C19.5508 22.6132 24.7335 17.8748 31.1035 17.8748C37.4735 17.8748 42.6562 22.6132 42.6562 28.4372C42.6562 34.2612 37.4735 38.9997 31.1035 38.9997ZM31.1035 20.3123C26.2034 20.3123 22.2168 23.9571 22.2168 28.4372C22.2168 32.9174 26.2034 36.5622 31.1035 36.5622C36.0036 36.5622 39.9902 32.9174 39.9902 28.4372C39.9902 23.9571 36.0036 20.3123 31.1035 20.3123Z" fill="#00C3FF"/>
<path d="M27.9932 38.5612C27.2573 38.5612 26.6602 38.0152 26.6602 37.3425V19.5325C26.6602 18.8597 27.2573 18.3137 27.9932 18.3137C28.729 18.3137 29.3262 18.8597 29.3262 19.5325V37.3425C29.3262 38.0168 28.729 38.5612 27.9932 38.5612Z" fill="#00C3FF"/>
<path d="M34.2139 38.5612C33.478 38.5612 32.8809 38.0152 32.8809 37.3425V19.5325C32.8809 18.8597 33.478 18.3137 34.2139 18.3137C34.9497 18.3137 35.5469 18.8597 35.5469 19.5325V37.3425C35.5469 38.0168 34.9497 38.5612 34.2139 38.5612Z" fill="#00C3FF"/>
<path d="M40.843 26.8125H21.3633C20.6275 26.8125 20.0303 26.2665 20.0303 25.5938C20.0303 24.921 20.6275 24.375 21.3633 24.375H40.843C41.5788 24.375 42.176 24.921 42.176 25.5938C42.176 26.2665 41.5788 26.8125 40.843 26.8125Z" fill="#00C3FF"/>
<path d="M40.843 32.4997H21.3633C20.6275 32.4997 20.0303 31.9537 20.0303 31.2809C20.0303 30.6082 20.6275 30.0622 21.3633 30.0622H40.843C41.5788 30.0622 42.176 30.6082 42.176 31.2809C42.176 31.9537 41.5788 32.4997 40.843 32.4997Z" fill="#00C3FF"/>
<path d="M15.1074 34.1259C15.0221 34.1259 14.9368 34.1178 14.8533 34.1032C14.7057 34.0772 0 31.3 0 16.1372V6.09467C0 5.59092 0.337695 5.14079 0.851348 4.95879L14.6258 0.0837925C14.935 -0.0250825 15.278 -0.0250825 15.5873 0.0837925L29.3617 4.95879C29.8771 5.14079 30.2148 5.59092 30.2148 6.09467V13.4072C30.2148 14.0799 29.6177 14.6259 28.8818 14.6259C28.146 14.6259 27.5488 14.0799 27.5488 13.4072V6.92992L15.1074 2.52779L2.66602 6.92992V16.1372C2.66602 28.4709 13.339 31.2805 15.1252 31.664C15.8432 31.5227 16.5506 31.9533 16.6981 32.613C16.8457 33.2712 16.38 33.9163 15.6602 34.0512L15.3225 34.1097C15.2514 34.121 15.1785 34.1259 15.1074 34.1259Z" fill="#00C3FF"/>
</g>
<defs>
<clipPath id="clip0_2_621">
<rect width="42.6562" height="39" fill="white"/>
</clipPath>
</defs>
</svg>
