<svg width="20" height="20" viewBox="0 0 20 20" fill="none" xmlns="http://www.w3.org/2000/svg">
<path fill-rule="evenodd" clip-rule="evenodd" d="M13.3337 3.3333H6.66699C4.82604 3.3333 3.33366 4.82568 3.33366 6.66663V13.3333C3.33366 15.1742 4.82604 16.6666 6.66699 16.6666H13.3337C15.1746 16.6666 16.667 15.1742 16.667 13.3333V6.66663C16.667 4.82568 15.1746 3.3333 13.3337 3.3333ZM6.66699 1.66663C3.90557 1.66663 1.66699 3.90521 1.66699 6.66663V13.3333C1.66699 16.0947 3.90557 18.3333 6.66699 18.3333H13.3337C16.0951 18.3333 18.3337 16.0947 18.3337 13.3333V6.66663C18.3337 3.90521 16.0951 1.66663 13.3337 1.66663H6.66699Z" fill="#777E90"/>
<path d="M14.1663 6.66667C14.6266 6.66667 14.9997 6.29357 14.9997 5.83333C14.9997 5.3731 14.6266 5 14.1663 5C13.7061 5 13.333 5.3731 13.333 5.83333C13.333 6.29357 13.7061 6.66667 14.1663 6.66667Z" fill="#777E90"/>
<path fill-rule="evenodd" clip-rule="evenodd" d="M14.1663 10C14.1663 12.3012 12.3008 14.1667 9.99968 14.1667C7.69849 14.1667 5.83301 12.3012 5.83301 10C5.83301 7.69885 7.69849 5.83337 9.99968 5.83337C12.3008 5.83337 14.1663 7.69885 14.1663 10ZM12.4997 10C12.4997 11.3808 11.3804 12.5 9.99968 12.5C8.61893 12.5 7.49968 11.3808 7.49968 10C7.49968 8.61929 8.61893 7.50004 9.99968 7.50004C11.3804 7.50004 12.4997 8.61929 12.4997 10Z" fill="#777E90"/>
</svg>
