<svg width="49" height="38" viewBox="0 0 49 38" fill="none" xmlns="http://www.w3.org/2000/svg">
<g clip-path="url(#clip0_2_396)">
<path d="M23.6953 29.0946C24.4675 28.2853 25.217 27.4988 25.9639 26.7122C27.2357 25.3794 28.5075 24.044 29.7793 22.7111C30.125 22.3495 30.5237 22.0814 31.036 22.0283C32.1715 21.9119 32.9917 22.7137 33.1052 23.652C33.1532 24.044 33.1229 24.4233 32.9563 24.7875C32.8705 24.9772 32.7469 25.1416 32.6005 25.2883C31.1975 26.6894 29.797 28.0906 28.394 29.4892C28.3183 29.565 28.3107 29.6005 28.3889 29.6814C29.9862 31.3304 31.5836 32.9844 33.1784 34.6385C33.7563 35.2379 33.943 36.1205 33.6074 36.8439C33.2718 37.5697 32.6863 37.9541 31.8813 37.9895C31.2303 38.0199 30.7256 37.7518 30.2991 37.2789C28.1391 34.8863 25.9765 32.4963 23.8139 30.1063C23.7836 30.0709 23.7508 30.038 23.7155 30.0001C23.6827 30.0456 23.6978 30.0911 23.6978 30.1341C23.6978 32.0259 23.6979 33.9177 23.6953 35.8094C23.6953 36.7477 23.1528 37.5722 22.31 37.8707C20.8968 38.3714 19.7234 37.3446 19.5342 36.2419C19.509 36.0927 19.5039 35.941 19.5039 35.7892C19.5039 28.8797 19.5039 21.9726 19.5039 15.0631C19.5039 14.0388 20.1297 13.1713 21.0634 12.9285C22.5219 12.5491 23.5767 13.7151 23.6751 14.7115C23.6878 14.8456 23.6953 14.9796 23.6953 15.1137C23.6953 19.7167 23.6953 24.3222 23.6953 28.9252C23.6953 28.9732 23.6953 29.0188 23.6953 29.0946Z" fill="#080524"/>
<path d="M44.801 35.8808C44.6748 36.0249 44.5613 36.164 44.4402 36.293C43.3904 37.4235 42.0909 37.9723 40.5516 37.99C39.4993 38.0027 38.5177 37.77 37.642 37.1757C36.398 36.3335 35.6611 35.1574 35.3962 33.6804C35.3154 33.2353 35.2852 32.7877 35.2852 32.3349C35.2852 29.6313 35.2852 26.9252 35.2852 24.2215C35.2852 23.2605 35.8327 22.4436 36.6756 22.135C37.9348 21.6747 39.3302 22.5574 39.464 23.8978C39.4766 24.0293 39.4816 24.1583 39.4816 24.2898C39.4816 26.6444 39.4816 28.999 39.4816 31.3536C39.4816 32.0087 39.6078 32.6258 39.9914 33.1696C40.5263 33.9258 41.2733 34.2621 42.1867 34.2571C43.6831 34.2495 44.6471 33.1392 44.7834 31.8519C44.8035 31.6622 44.8086 31.475 44.8086 31.2854C44.8086 28.9308 44.8086 26.5761 44.8086 24.2215C44.8086 23.2832 45.2325 22.5776 46.0779 22.1982C47.4658 21.5735 48.7401 22.5827 48.9647 23.7284C48.9899 23.8573 48.9924 23.9863 48.9924 24.1178C48.9924 28.043 48.9849 31.9707 48.9975 35.8959C49 36.8519 48.2102 37.8484 47.1806 37.9825C46.1182 38.1216 45.0433 37.3502 44.854 36.2905C44.8338 36.1615 44.8212 36.0275 44.801 35.8808Z" fill="#080524"/>
<path d="M42.8635 9.14796C43.3455 9.33258 43.8249 9.51974 44.3069 9.70184C45.6519 10.2102 46.9994 10.7185 48.3444 11.2269C48.5967 11.323 48.7961 11.4798 48.9197 11.7277C48.9677 11.8263 48.9954 11.93 48.9954 12.0438C48.9954 14.0873 48.9954 16.1283 48.9929 18.1718C48.9929 18.536 48.7027 18.8598 48.3065 18.9559C48.0895 19.009 47.875 18.9938 47.6631 18.9154C45.8613 18.2351 44.0596 17.5573 42.2604 16.8769C38.9875 15.6427 35.7171 14.406 32.4442 13.1693C32.3433 13.1313 32.2373 13.106 32.1465 13.0428C32.1843 13.0074 32.2247 13.0251 32.2651 13.0352C32.4543 13.0833 32.6386 13.0656 32.8202 12.9947C34.2157 12.4485 35.6162 11.9072 37.0142 11.366C38.8866 10.6401 40.7564 9.90922 42.6288 9.18842C42.6793 9.16819 42.7298 9.14796 42.7777 9.12014C42.813 9.10496 42.8408 9.12014 42.8635 9.14796Z" fill="#6F3A96"/>
<path d="M42.8626 9.14775C42.8374 9.14016 42.8121 9.1351 42.7869 9.12752C42.7288 9.15534 42.6809 9.12246 42.6304 9.10476C40.6798 8.37384 38.7292 7.63281 36.7786 6.89936C35.5194 6.42642 34.2627 5.95094 33.0061 5.47294C32.789 5.38948 32.5746 5.37936 32.35 5.3996C32.3045 5.40466 32.2591 5.42236 32.2188 5.38189C32.4509 5.25797 32.7058 5.17956 32.9505 5.08346C35.527 4.08193 38.1059 3.0804 40.6823 2.08139C42.4159 1.40865 44.147 0.738433 45.8806 0.0656874C46.4938 -0.17205 47.102 0.245255 47.102 0.907884C47.1045 2.88312 47.102 4.85837 47.102 6.83361C47.102 7.27114 46.9076 7.56705 46.4963 7.72892C45.5702 8.09311 44.6416 8.44971 43.7155 8.80885C43.4304 8.92013 43.1452 9.03647 42.8626 9.14775Z" fill="#00C3FF"/>
<path d="M32.2169 5.38169C32.6509 5.26788 33.0319 5.44745 33.4205 5.59414C35.7598 6.47933 38.1015 7.35946 40.4407 8.24465C41.223 8.54056 42.0027 8.83647 42.785 9.13237C42.7598 9.19813 42.6916 9.19813 42.6437 9.21836C41.6066 9.62302 40.5694 10.0252 39.5298 10.4273C38.4094 10.8623 37.289 11.2922 36.1686 11.7272C35.2046 12.1016 34.2407 12.4784 33.2767 12.8527C33.1203 12.9134 32.9638 12.9741 32.8073 13.0348C32.5878 13.1183 32.3657 13.1056 32.1437 13.0424C31.7753 12.8704 31.5936 12.5745 31.5936 12.1698C31.5911 11.1683 31.5936 10.1668 31.5936 9.16525C31.5936 8.23454 31.6011 7.30635 31.5911 6.37564C31.5835 5.89763 31.7601 5.5562 32.2169 5.38169Z" fill="#581689"/>
<path d="M16.9323 24.2113C16.9323 24.0545 16.9197 23.9002 16.8919 23.7459C16.7203 22.8025 15.8649 22.0539 14.9237 22.016C13.7452 21.9679 12.9857 22.8759 12.804 23.6068C12.7434 23.8496 12.7333 24.0975 12.7333 24.3782C12.6879 24.3225 12.6627 24.2922 12.64 24.2644C12.0268 23.5107 11.2773 22.9341 10.3815 22.5547C9.61184 22.2284 8.80434 22.0742 7.97161 22.0286C6.92691 21.973 5.90492 22.0843 4.92835 22.4611C3.00045 23.2072 1.63779 24.5704 0.75207 26.4192C0.017751 27.9569 -0.115991 29.5958 0.0858837 31.265C0.272618 32.8027 0.870671 34.1684 1.875 35.3495C2.78091 36.4168 3.87103 37.2185 5.2135 37.6485C6.4096 38.0304 7.63094 38.0759 8.86238 37.8837C10.3865 37.6459 11.6583 36.9454 12.6425 35.744C12.6652 35.7162 12.6803 35.6707 12.7283 35.6656C12.7358 35.8022 12.7409 35.9312 12.7485 36.0627C12.8166 37.1376 13.9219 38.3187 15.4006 37.914C16.309 37.6662 16.9323 36.8012 16.9323 35.8073C16.9323 31.9428 16.9323 28.0758 16.9323 24.2113ZM9.32164 33.9863C8.20881 34.1735 7.1313 34.0672 6.14464 33.4805C4.82489 32.6965 4.18898 31.5179 4.19655 29.9827C4.2016 28.8825 4.53722 27.9164 5.34219 27.1425C6.05128 26.4597 6.89915 26.0752 7.87824 25.9791C8.80939 25.8881 9.7052 26.0044 10.5405 26.447C11.9031 27.1678 12.645 28.4298 12.645 30.008C12.6576 32.4056 10.9215 33.7157 9.32164 33.9863Z" fill="#080524"/>
</g>
<defs>
<clipPath id="clip0_2_396">
<rect width="49" height="38" fill="white"/>
</clipPath>
</defs>
</svg>
