<svg width="70" height="34" viewBox="0 0 70 34" fill="none" xmlns="http://www.w3.org/2000/svg">
<path d="M52.2769 0.599731H35.5801V16.6676H52.2769V0.599731Z" fill="#626262"/>
<path d="M39.8018 3.23474V9.54841C39.8018 12.8974 41.5323 14.1418 43.8143 14.1418C46.2295 14.1418 48.0361 12.8059 48.0361 9.51181V3.23474H46.5718V9.60331C46.5718 11.9641 45.4878 13.0072 43.8524 13.0072C42.369 13.0072 41.247 11.9824 41.247 9.60331V3.23474H39.8018Z" fill="white"/>
<path d="M70.0005 0.599609H53.3037V16.6674H70.0005V0.599609Z" fill="#626262"/>
<path d="M58.819 13.9953V9.40189C58.819 7.62675 58.7999 6.32741 58.7239 4.97317L58.7809 4.95488C59.3324 6.10781 60.0741 7.33394 60.8538 8.54177L64.3909 13.9953H65.8552V3.27123H64.505V7.77315C64.505 9.43849 64.543 10.7378 64.6762 12.1653L64.6001 12.1836C64.0866 11.0672 63.421 9.95091 62.6223 8.68817L59.0662 3.25293H57.4688V13.977H58.819V13.9953Z" fill="white"/>
<path d="M70.0005 17.6558H53.3037V33.7236H70.0005V17.6558Z" fill="#626262"/>
<path d="M64.0101 23.4934C64.0101 22.066 62.9642 21.3706 61.3858 21.3706C60.7582 21.3706 60.2828 21.4255 60.0356 21.4804V25.6529C60.3399 25.7261 60.7582 25.7627 61.2337 25.7627C62.9642 25.781 64.0101 24.9392 64.0101 23.4934ZM65.4554 23.347C65.4554 24.317 65.1511 25.0856 64.5806 25.6346C63.82 26.4032 62.5839 26.8058 61.1766 26.8058C60.7392 26.8058 60.3399 26.7875 60.0166 26.7143V31.0332H58.5713V20.4373C59.2749 20.3092 60.1687 20.2177 61.3287 20.2177C62.755 20.2177 63.8009 20.5288 64.4475 21.1144C65.0941 21.6085 65.4554 22.3954 65.4554 23.347Z" fill="white"/>
<path d="M52.2593 17.674H35.5625V33.7418H52.2593V17.674Z" fill="#626262"/>
<path d="M47.3714 25.4334C47.3904 22.8713 45.888 21.2975 42.8453 21.2975C42.1037 21.2975 41.5332 21.3524 41.1528 21.4439V29.9353C41.5142 29.9902 42.0466 29.9902 42.6171 29.9902C45.6979 30.0085 47.3714 28.3432 47.3714 25.4334ZM48.8927 25.3968C48.8927 27.1536 48.3222 28.5811 47.2953 29.5693C46.2303 30.5758 44.5188 31.1066 42.3509 31.1066C41.305 31.1066 40.4682 31.07 39.7266 30.9785V20.4191C40.6204 20.291 41.6663 20.1995 42.8073 20.1995C44.8801 20.1995 46.3444 20.6387 47.3333 21.5171C48.3032 22.3955 48.8927 23.6583 48.8927 25.3968Z" fill="white"/>
<path d="M34.6696 0.599365H0.210938V33.7598H34.6696V0.599365Z" fill="#626262"/>
<path d="M26.2057 24.2255C25.426 24.4268 24.5702 24.5 23.8096 24.7562C25.1027 23.6765 25.0457 22.0295 25.9014 20.7484C26.1867 20.3824 26.4149 20.0164 26.7192 19.6687C26.1867 20.6935 26.4149 22.0112 25.8063 22.9994C25.5781 23.3837 25.2358 23.768 24.8745 24.0791C24.9886 24.0791 25.1027 23.9693 25.1978 23.9144C26.1867 22.9628 27.4798 22.7066 28.5448 21.938C28.9631 21.6086 29.3625 21.1876 29.5527 20.7118C29.3625 22.2857 27.7271 23.7497 26.2057 24.2255Z" fill="white"/>
<path d="M29.7623 17.8753C29.2869 18.5341 28.6974 19.1563 28.26 19.8151C28.3171 19.2844 28.3741 18.6256 28.1649 18.1315C27.7846 17.0517 27.4613 15.9537 27.3662 14.7642L27.3852 14.3067C27.6705 15.5145 28.9066 16.3563 28.8305 17.7106C28.8495 18.04 28.7544 18.3145 28.6974 18.6073L28.7164 18.6256L28.7735 18.5707C28.9636 17.9119 29.0397 17.1981 29.325 16.5759C29.7243 15.6792 30.2378 14.7642 30.0286 13.6844C30.6181 14.9655 30.4279 16.6674 29.7623 17.8753Z" fill="white"/>
<path d="M29.002 10.9941C29.8197 12.0555 29.9908 13.7392 29.4013 14.9653C29.1731 15.4777 29.021 16.0267 28.9449 16.594C28.9069 16.5025 28.8879 16.3561 28.8498 16.2463C28.5265 15.0568 27.3475 14.215 26.8721 13.0803C26.7199 12.7143 26.5868 12.33 26.5107 11.9274C27.0242 12.8424 28.2983 13.3183 28.6406 14.3248C28.7738 14.581 28.7738 14.8921 28.8688 15.1666C28.8879 15.1666 28.9069 15.1483 28.9069 15.13C28.7547 14.0869 28.7928 13.0071 28.9449 11.9823C28.9449 11.4333 28.8879 10.8843 28.5646 10.4634C28.7547 10.5915 28.8498 10.8111 29.002 10.9941Z" fill="white"/>
<path d="M28.4113 10.7746C28.6205 11.7079 28.3162 12.6046 28.5064 13.538C27.9739 12.5497 26.871 12.0739 26.0913 11.287C25.6539 10.8112 25.4447 10.2439 25.3496 9.62166C25.787 10.6465 26.966 10.8661 27.6507 11.7262C27.8789 11.9275 27.9549 12.202 28.1071 12.4216L28.1261 12.4033C27.7267 11.5981 27.5936 10.7014 27.3274 9.84126C27.1942 9.47525 26.909 9.10924 26.5477 8.87134C27.4605 9.07264 28.2402 9.96937 28.4113 10.7746Z" fill="white"/>
<path d="M26.0369 8.65171C26.7025 9.23733 27.0067 9.98765 27.2159 10.7563L27.33 11.0125C26.3602 10.3354 25.4664 9.42033 24.8388 8.4687L24.0781 7.71838C24.7437 7.99289 25.4664 8.1576 26.0369 8.65171Z" fill="white"/>
<path d="M10.5938 7.84644C9.90918 8.41375 9.45278 9.14577 8.95834 9.80459C8.50193 10.3353 7.93142 10.7013 7.41797 11.1588C7.68421 10.6098 7.70322 9.95099 8.08356 9.45688C8.65407 8.52355 9.68098 8.19414 10.5938 7.84644Z" fill="white"/>
<path d="M6.90343 9.82281C7.22671 9.4385 7.64509 9.16399 8.12051 9.03589C7.2077 9.6398 7.26475 10.7195 6.9795 11.6163C6.88441 11.9457 6.73228 12.2568 6.65621 12.5862L6.67523 12.6045C6.82736 12.2202 7.0936 11.8542 7.41688 11.5431C8.06346 10.9757 9.0143 10.6097 9.33759 9.76791C9.31857 10.9391 8.29166 11.8725 7.3218 12.5313C6.92244 12.879 6.52309 13.2633 6.3139 13.7025C6.29489 13.4097 6.35194 13.0986 6.33292 12.7875C6.23784 11.7627 6.14275 10.5914 6.90343 9.82281Z" fill="white"/>
<path d="M5.05849 13.3548C5.03947 12.3117 5.47686 11.4516 6.12344 10.683C6.14245 10.683 6.16147 10.6647 6.18049 10.6647C5.47686 11.6895 6.06639 12.9705 6.02835 14.1418L5.93327 15.3313C5.95229 15.3313 5.95229 15.3679 5.9713 15.3679C6.00934 15.2398 6.02835 15.0934 6.04737 14.9653C6.21852 14.0137 7.07428 13.3182 7.83496 12.6594C7.98709 12.4947 8.13923 12.3117 8.2153 12.1104C8.15825 12.5862 8.00611 13.062 7.79692 13.5195C7.2074 14.6176 6.12344 15.5326 5.91425 16.7953C5.83818 15.5509 4.98242 14.6359 5.05849 13.3548Z" fill="white"/>
<path d="M4.54656 14.8374C4.62263 14.5079 4.67968 14.1785 4.83181 13.8674C4.54656 15.24 5.51642 16.2465 5.83971 17.436C5.97283 17.8752 6.01086 18.3694 6.20103 18.7903C6.22005 18.7903 6.23906 18.7903 6.23906 18.772C5.76364 17.4909 6.44825 16.3197 7.13286 15.3315C7.30401 15.057 7.39909 14.7642 7.47516 14.453C7.55123 15.0204 7.39909 15.6975 7.30401 16.2831C7.13286 17.0517 6.88564 17.7654 6.67645 18.4975C6.54333 18.955 6.56235 19.4857 6.63842 19.9615L6.56235 19.9066C6.06791 19.0099 5.06002 18.3328 4.77476 17.3445C4.52754 16.5759 4.37541 15.6792 4.54656 14.8374Z" fill="white"/>
<path d="M4.49035 17.5273C4.60445 18.9914 6.2399 19.76 7.00058 20.9678C7.17173 21.224 7.34289 21.4803 7.57109 21.6999C7.53305 21.5535 7.38092 21.407 7.32387 21.2606C7.05763 20.7482 6.96255 20.1443 7.0196 19.5404C7.09567 18.7901 7.41895 18.0947 7.28583 17.3077C7.95143 18.6986 7.74224 20.4188 8.12258 21.9195C8.21766 22.2489 8.40783 22.5417 8.54095 22.8528C7.17173 21.9561 5.30808 21.0959 4.69954 19.4672C4.47133 18.8816 4.4333 18.1862 4.49035 17.5273Z" fill="white"/>
<path d="M5.30566 20.8947C6.06634 22.56 7.98705 22.6881 9.26118 23.7129C9.48938 23.9143 9.7366 24.079 10.0028 24.2071L10.0219 24.1888C9.7366 23.9326 9.3943 23.6397 9.18511 23.3103C8.44345 22.3038 8.69067 20.8947 8.13918 19.8149C8.65264 20.4006 9.10904 21.0045 9.41331 21.6816C9.86972 22.7613 10.0409 24.0058 11.1058 24.811C9.9648 24.445 8.6146 24.5548 7.60671 23.8776C6.50373 23.2188 5.51485 22.1025 5.30566 20.8947Z" fill="white"/>
<path d="M7.2666 23.9876C8.48368 25.3235 10.4805 24.8843 12.1159 25.232C12.3441 25.2686 12.5533 25.3601 12.8005 25.3235C12.6103 25.1954 12.3441 25.2137 12.1349 25.1039C10.8608 24.6647 10.6706 23.347 9.967 22.4503C10.8608 23.0176 11.6025 23.7863 12.4202 24.5183C13.0097 25.0124 13.7133 25.2503 14.455 25.3967C14.2838 25.4516 14.0366 25.4333 13.8464 25.4882C12.5153 25.7993 11.0129 26.33 9.60568 25.8542C8.69287 25.5614 7.74202 24.866 7.2666 23.9876Z" fill="white"/>
<path d="M23.8679 27.1172C22.4987 27.6113 21.0534 27.0989 19.9694 26.3119C19.532 26.0374 19.1517 25.6531 18.5812 25.6897C18.372 25.6897 18.1818 25.6897 18.0107 25.7446C19.0566 26.2204 20.0265 26.8609 20.9203 27.6845C20.7681 27.8492 20.578 27.9956 20.3878 28.142C19.532 27.2453 18.5812 26.4034 17.5162 25.9093C17.3071 25.9276 17.1169 26.0557 16.9267 26.1472C16.071 26.6779 15.2152 27.3551 14.5686 28.1786L14.0171 27.7394C14.8919 26.8793 15.8808 26.2204 16.9457 25.7446C15.8998 25.4335 15.2152 26.2753 14.4165 26.6962C13.4847 27.3185 12.1535 27.6113 11.0315 27.1904C10.4229 26.9708 9.85243 26.6413 9.41504 26.1289C10.2898 26.7145 11.602 26.7694 12.6099 26.3851C13.9601 25.8178 15.3483 25.1041 16.9647 25.4518C17.212 25.4518 17.4592 25.708 17.7064 25.4884C18.9045 25.1956 20.2737 25.3969 21.3196 25.9276L22.3846 26.3302C23.3734 26.6779 24.6666 26.5864 25.5033 26.0008C25.085 26.5132 24.4954 26.8976 23.8679 27.1172Z" fill="white"/>
<path d="M25.3507 25.7445C23.8104 26.3118 22.251 25.6164 20.7677 25.3785L20.4824 25.3419C21.186 25.1955 21.8707 24.9758 22.4412 24.5C23.2779 23.7314 24.0196 22.9445 24.9324 22.3406C24.2478 23.1824 24.1717 24.3902 23.0497 24.9392C22.7644 25.1222 22.4221 25.1406 22.1179 25.287C22.5362 25.287 22.9166 25.1588 23.3159 25.1222C24.8373 24.8843 26.5678 25.1222 27.6328 23.8778C27.2334 24.7013 26.2445 25.4334 25.3507 25.7445Z" fill="white"/>
<path d="M28.1645 21.5535C27.5559 21.9378 26.9284 22.3038 26.3389 22.7247V22.6698C27.2327 21.2241 26.7953 19.2476 27.3468 17.6738L27.5559 17.1431C27.4418 18.1313 27.8792 18.9731 27.8602 19.9613C27.8222 20.5653 27.632 21.096 27.3087 21.5718H27.3658C27.8032 21.0228 28.1455 20.4189 28.6589 19.8881C29.4576 19.1378 30.2754 18.3875 30.3704 17.3627C30.6367 19.0646 29.6478 20.5836 28.1645 21.5535Z" fill="white"/>
<path d="M26.1694 16.1913C26.0743 18.2593 25.2756 20.0527 23.8683 21.59L23.8303 21.6632C23.545 21.3521 23.1647 20.9678 22.8034 20.6933C23.0126 20.5652 23.1837 20.3089 23.3358 20.1259C24.2106 18.973 24.7241 17.6737 24.8001 16.2096L24.7621 16.0815L24.8382 16.1364H26.1503L26.2264 16.0998L26.1694 16.1913ZM17.7449 24.2802L17.6498 24.3351C17.6878 23.8775 17.6878 23.4017 17.6498 22.9442C17.878 23.0174 18.1252 22.9442 18.3724 22.9442L19.0761 22.8161C19.4184 22.8893 19.6656 23.42 20.0649 23.0906C20.1981 22.9442 20.4263 22.9442 20.5213 22.7429C20.7495 22.6697 20.8066 22.4501 20.9587 22.3037C21.1109 21.8828 21.6053 21.8279 21.8906 21.5351C22.0997 21.3521 22.385 21.1874 22.5181 20.9495L22.5371 21.0593L23.507 21.956C21.8715 23.3834 19.9508 24.1887 17.7449 24.2802ZM17.7259 21.4619C17.897 21.5351 18.1823 21.3887 18.2774 21.5717C18.2203 21.6815 18.1442 21.773 18.1823 21.8828C18.2583 22.0475 18.3534 22.2671 18.5626 22.2854C18.6197 22.3586 18.6957 22.3769 18.7718 22.3952C18.4105 22.4501 18.0111 22.4318 17.6688 22.5416C17.7068 22.1756 17.6688 21.8096 17.6688 21.4436L17.5927 21.3521C17.6498 21.3704 17.6878 21.4253 17.7259 21.4619ZM17.3836 19.2109C17.2885 19.2292 17.1934 19.2109 17.1173 19.1743C17.0793 19.1743 17.0983 19.1194 17.0793 19.1011C17.2124 19.1011 17.2695 18.9547 17.4216 18.973C17.4977 18.8998 17.5167 18.79 17.6308 18.7351C17.5927 18.6253 17.7449 18.6985 17.7639 18.6253C17.8019 18.5887 17.859 18.5521 17.916 18.5887C18.0111 18.7168 18.2013 18.6619 18.2964 18.8083C18.3344 18.8266 18.3534 18.7717 18.3534 18.7534V18.6985C18.5056 18.6802 18.5816 18.8815 18.7338 18.7534C18.7718 18.7168 18.7528 18.6619 18.7338 18.6253C18.7147 18.6253 18.6957 18.607 18.6957 18.5887C18.8098 18.5338 18.8669 18.7351 19 18.6802C19.1141 18.5887 19.1711 18.4972 19.3233 18.4972L19.3613 18.5338C19.3803 18.79 19.1521 18.9547 18.9429 19.0828C18.8098 19.1377 18.5626 19.1194 18.5816 19.3207C18.4295 19.4488 18.2964 19.2475 18.1062 19.3024C18.0111 19.2658 18.1062 19.1377 17.9731 19.1194C17.7639 19.1743 17.5357 19.0096 17.3836 19.2109ZM16.2806 24.2253C14.4359 23.9873 12.8195 23.2187 11.3932 22.0292L12.3441 21.1142L12.3631 21.0593C13.6753 22.2671 15.2537 22.8893 17.0413 22.9991L17.1744 22.9625L17.1363 23.0357V24.2253L17.2124 24.3351C16.9081 24.2436 16.5658 24.2802 16.2806 24.2253ZM9.81484 20.0344C9.14924 18.8449 8.76891 17.5639 8.69284 16.1547H9.96697L10.1001 16.1181C10.0811 16.1913 10.0811 16.2645 10.0811 16.3743V16.356C10.043 16.3743 10.1001 16.3926 10.1001 16.4292C10.1191 16.9051 10.2142 17.3443 10.3283 17.7652L10.3853 17.8567C10.2903 17.7652 10.2522 17.6737 10.1762 17.5822C10.0621 17.6005 9.94795 17.6188 9.87189 17.692C9.92894 17.8201 9.79582 17.7835 9.73877 17.8201C9.71975 17.7835 9.68172 17.7469 9.64368 17.7286C9.5486 17.7286 9.45352 17.7469 9.39646 17.8384C9.41548 17.9116 9.33941 17.9299 9.30138 17.9848C9.28236 18.1861 9.2063 18.4423 9.35843 18.607C9.35843 18.7534 9.4345 18.8815 9.5486 18.973C9.58663 18.973 9.62467 18.9547 9.64368 18.9364C9.7768 19.0279 9.83385 19.2475 10.024 19.1926C10.0811 19.1743 10.0621 19.1194 10.0811 19.0645C10.1762 19.156 10.2142 19.339 10.4044 19.3207C10.4424 19.3573 10.4804 19.4488 10.5565 19.4488C10.7467 19.3939 10.6896 19.6684 10.8227 19.7416C10.9368 19.8148 10.9939 19.9612 11.146 19.888L11.2031 19.8148C11.2601 19.8514 11.2031 19.9429 11.2601 19.9795C11.3362 20.1259 11.4883 20.2174 11.6405 20.254C11.7736 20.4005 11.9067 20.5652 12.0588 20.675L11.9447 20.7116L11.0319 21.6266C10.6135 21.1508 10.1381 20.6201 9.81484 20.0344ZM8.74989 14.8737C8.97809 13.0437 9.79582 11.4515 11.108 10.0424L11.146 10.1705C11.4503 10.4633 11.7736 10.7744 12.0778 11.0489C11.8116 11.2136 11.6785 11.5064 11.4693 11.726C10.6516 12.8424 10.1762 14.1051 10.1001 15.5142L10.1381 15.6789C9.68172 15.6423 9.18728 15.6423 8.71186 15.6789C8.73087 15.4044 8.69284 15.1299 8.74989 14.8737ZM12.1729 9.14565C13.6372 8.13913 15.2727 7.53521 17.1173 7.46201L17.0603 7.57181L17.0793 8.63324L17.1173 8.74304C15.3297 8.81624 13.7703 9.47506 12.4201 10.6463L12.4011 10.7012C12.0969 10.3901 11.7546 10.0241 11.3932 9.76787H11.3552C11.6405 9.60316 11.8877 9.32866 12.1729 9.14565ZM17.1363 12.275C16.8891 12.2201 16.6799 12.3299 16.4517 12.3482C15.9383 12.4763 15.4819 12.7508 15.0445 13.0437C15.0255 13.0803 15.0064 13.1169 14.9684 13.1352C14.6451 12.8607 14.3409 12.4946 13.9986 12.2567C14.8923 11.5613 15.9002 11.0855 17.0603 11.0123L17.1363 10.9757C17.0793 11.3966 17.0793 11.8541 17.1363 12.275ZM16.775 13.7025C16.756 13.6476 16.8321 13.5744 16.756 13.5378C16.5468 13.6293 16.6229 13.8489 16.4898 13.9953C16.4707 14.1051 16.3186 14.0502 16.2425 14.1234C16.1855 14.0319 16.0714 14.0502 15.9953 14.0868C15.8812 14.0868 15.8622 13.8672 15.7481 13.977C15.7101 14.0136 15.7291 14.0868 15.653 14.0685C15.634 14.0319 15.596 14.0319 15.577 14.0136C15.577 13.9404 15.6911 13.9587 15.653 13.8855C15.577 13.7391 15.3868 13.7574 15.2727 13.6659H15.1586C15.6911 13.1169 16.3757 12.879 17.1173 12.7691C17.1173 13.0803 17.0793 13.4463 17.1934 13.7391C17.0793 13.5927 16.9081 13.7574 16.775 13.7025ZM15.5009 17.2894C15.577 17.2162 15.653 17.1064 15.6911 16.9966L15.8432 17.0698C15.6911 17.0881 15.615 17.2345 15.5009 17.2894ZM16.9652 18.6253C16.9081 18.7351 16.9462 18.8815 16.9272 18.9913C16.3186 18.8815 15.7671 18.6436 15.2727 18.2593C15.5579 17.9665 15.9193 17.692 16.1284 17.3809C16.1475 17.5273 16.3376 17.5822 16.4517 17.6554C16.699 17.7652 16.9842 17.9299 17.2695 17.8201C17.2504 17.8384 17.2314 17.8567 17.2124 17.875C17.2885 17.9482 17.1554 18.0214 17.2504 18.0946C17.2695 18.1495 17.1934 18.1495 17.1934 18.1861C17.2314 18.2593 17.1744 18.4057 17.3075 18.4423C17.3455 18.4789 17.3075 18.5521 17.2504 18.5521C17.1363 18.5338 17.0222 18.5338 16.9652 18.6253ZM14.1317 13.8672C13.9986 13.9404 13.9035 14.0685 13.8274 14.1783C13.7133 14.2515 13.5802 14.2332 13.4851 14.3613C13.4851 14.4162 13.5421 14.4711 13.4851 14.5077C13.371 14.5992 13.1618 14.4894 13.1048 14.6724C13.0857 14.8371 12.8766 14.9286 12.8956 15.1116C12.7815 15.1848 12.8005 15.3129 12.8195 15.4227C12.8766 15.4959 12.8005 15.624 12.8956 15.6789C12.7244 15.6606 12.4772 15.624 12.3251 15.6972C12.4201 15.4959 12.3821 15.258 12.4392 15.0384C12.6103 14.1234 13.0477 13.3182 13.6753 12.5861C13.9986 12.879 14.3409 13.245 14.6832 13.5012C14.4169 13.5012 14.4169 13.8672 14.1317 13.8672ZM13.5041 19.0828L13.4661 18.8083C13.1998 18.5887 13.2949 18.1861 13.2379 17.9116C13.0477 17.7652 13.1998 17.5456 13.0667 17.3809C13.0667 17.1247 12.6484 17.0332 12.7815 16.7587C12.7244 16.6855 12.6674 16.594 12.7244 16.5024C12.8005 16.4109 12.9907 16.5024 13.0477 16.3743L13.0857 16.1364C13.1808 16.0815 13.3139 16.2096 13.371 16.0815C13.4661 15.8619 13.0287 15.5874 13.409 15.4776C13.5421 15.4593 13.6943 15.441 13.7513 15.5874C13.7703 15.7521 13.8274 15.9351 13.7513 16.0998C13.8654 16.1364 13.7703 16.2462 13.7703 16.3194C13.6943 16.356 13.6372 16.4292 13.5421 16.3926C13.5041 16.3377 13.4471 16.2279 13.352 16.2462C13.2759 16.3377 13.371 16.4292 13.371 16.539C13.352 16.5939 13.371 16.6672 13.333 16.7221C13.2949 16.7038 13.2759 16.6855 13.2189 16.6855C13.1428 16.7221 13.1998 16.8136 13.2189 16.8502C13.2949 16.9051 13.352 16.9783 13.4661 16.9783L13.5041 16.9234C13.4851 16.777 13.5612 16.6672 13.5612 16.539L13.6943 16.6123C13.8084 17.1613 14.0746 17.6554 14.3979 18.1312L14.5691 18.2959C14.1507 18.6436 13.7513 19.0645 13.39 19.4488C13.39 19.4305 13.371 19.3573 13.3139 19.3939C13.2759 19.2292 13.5612 19.2841 13.5041 19.0828ZM16.4327 20.6567L16.6609 20.7482C15.8622 20.5652 15.0064 20.2906 14.3218 19.7416C14.2077 19.6684 14.1317 19.522 13.9795 19.522C14.3028 19.2658 14.6261 18.9364 14.8923 18.6253C15.0064 18.8449 15.2727 18.9547 15.4629 19.1011C15.8052 19.2475 16.1665 19.5403 16.5848 19.4671C16.4517 19.5037 16.3376 19.5769 16.2425 19.6867C16.1855 19.8148 16.2045 19.9795 16.0334 20.0344C16.0334 20.254 16.2616 20.4737 16.4327 20.6567ZM15.0635 17.1979C15.0635 17.2345 15.1205 17.2894 15.1776 17.2528C15.2346 17.1796 15.0635 17.0698 15.1776 17.0332C15.2537 17.1064 15.2156 17.2528 15.2537 17.3443C15.2917 17.3992 15.3107 17.4541 15.2917 17.509C15.1586 17.6554 14.9874 17.7835 14.9114 17.9482C14.8353 17.7469 14.6451 17.5822 14.5691 17.3809C14.4359 17.143 14.3599 16.8868 14.2458 16.6672C14.3599 16.7953 14.6451 16.6489 14.6451 16.9051C14.6641 16.9234 14.6832 16.9051 14.7212 16.9051C14.7592 16.8685 14.7592 16.8685 14.8163 16.8868C14.8353 16.9234 14.9494 16.96 14.8543 16.9966C14.8733 17.0881 14.9684 17.1796 15.0635 17.1979ZM17.1173 10.5365C16.8701 10.4816 16.6419 10.5731 16.3947 10.5914C15.3678 10.7927 14.4169 11.2136 13.6372 11.9273L13.5992 11.8358C13.2949 11.5613 13.0097 11.2136 12.6674 11.0123C12.9526 10.8476 13.2189 10.5914 13.5041 10.4084C14.5691 9.71297 15.7671 9.32866 17.0983 9.25546C17.0603 9.67637 17.0983 10.1156 17.1173 10.5365ZM11.9067 15.6789L11.7926 15.6423L10.5375 15.6606C10.6516 14.3064 11.0319 13.062 11.8496 12.0005L12.3441 11.3966V11.3051C12.6293 11.6345 12.9716 11.9456 13.3139 12.2384C12.4011 13.1718 11.9447 14.3064 11.8496 15.5508C11.8687 15.6057 11.8687 15.6606 11.9067 15.6789ZM10.9749 17.7286C10.8417 17.7469 10.8798 17.875 10.8417 17.9482C10.8608 17.6371 10.7086 17.3443 10.6706 17.0332L10.5755 16.2279L10.5185 16.1547C10.9178 16.2096 11.3742 16.173 11.7926 16.1913L11.8877 16.1547C11.8496 16.356 11.8496 16.6306 11.9828 16.7953C11.9257 16.7404 11.8496 16.594 11.7355 16.594C11.5073 16.6123 11.4883 16.9051 11.2411 16.9051C11.0509 17.0515 11.0129 17.2711 10.9749 17.4907C11.07 17.5456 10.9178 17.6371 10.9749 17.7286ZM12.3631 16.2096L12.306 16.0998C12.4392 16.1913 12.5913 16.173 12.7434 16.1364C12.5152 16.2096 12.6103 16.4658 12.5152 16.6306C12.4962 16.7038 12.6293 16.7404 12.6103 16.8136C12.4962 16.8685 12.4772 16.9783 12.4392 17.0698C12.4962 16.777 12.3821 16.5024 12.3631 16.2096ZM17.1744 22.5782L17.0413 22.4867C15.3297 22.3952 13.8654 21.7181 12.5913 20.6567C12.8005 20.6384 12.8766 20.8946 13.1048 20.8397C13.352 20.8214 13.5421 20.6201 13.8084 20.6567C13.9415 20.6567 14.0936 20.6567 14.1697 20.5286C14.2077 20.4005 14.0556 20.3272 14.0366 20.2174C14.9114 20.8397 15.8812 21.2423 17.0032 21.2789L17.1173 21.2423V22.4135L17.1744 22.5782ZM17.3836 14.3796L17.4596 14.4162C17.3645 14.4162 17.2504 14.3613 17.1744 14.4345C17.1173 14.4711 17.1554 14.5443 17.1744 14.5992C17.3455 14.6541 17.3836 14.9286 17.5927 14.8188C17.6878 14.8371 17.8019 14.8554 17.84 14.9469C17.9731 15.0018 17.9921 15.2214 18.1633 15.1665C18.1633 15.258 18.1252 15.4044 18.2393 15.4593C18.2203 15.5325 18.1062 15.5691 18.1062 15.6606C18.0872 15.6789 18.0682 15.7338 18.0872 15.7704C18.2583 15.7887 18.2393 15.9717 18.3344 16.0815C18.2964 16.2096 18.3344 16.3377 18.4675 16.4109C18.4485 16.5573 18.3724 16.6855 18.3154 16.8136C18.1442 16.9051 17.84 16.6855 17.7829 16.9966C17.6878 17.1064 17.7639 17.3443 17.5737 17.3443C17.1934 17.3626 16.8511 17.2894 16.5658 17.0881C16.756 16.9966 17.0793 17.1247 17.1363 16.8502C17.1934 16.8136 17.2124 16.7404 17.1744 16.6855C17.2695 16.594 17.2885 16.4841 17.3455 16.3926C17.2695 16.3194 17.3075 16.2828 17.3265 16.2096C17.1363 16.0266 16.8891 16.1181 16.6419 16.1181C16.4898 16.1913 16.6419 16.356 16.5468 16.4475C16.3566 16.4658 16.3566 16.6489 16.2235 16.7404C16.1475 16.7038 16.0904 16.6123 16.0904 16.539H16.1094C16.0904 16.5756 16.1284 16.6123 16.1475 16.6123C16.3186 16.6306 16.2616 16.4475 16.3186 16.356C16.3376 16.2462 16.6039 16.0998 16.3947 16.0266C16.3757 15.99 16.4137 15.9168 16.3566 15.8985C16.2996 15.9168 16.1855 15.9168 16.1855 16.0266C16.2235 16.0998 16.1855 16.1913 16.1094 16.2462H16.0714C16.0904 16.1913 16.0524 16.1547 16.0143 16.1364C15.9002 16.1364 15.8242 16.2096 15.7101 16.1913C15.5579 16.2279 15.4058 16.2462 15.2537 16.2462C15.2346 16.1547 15.3678 16.1913 15.4058 16.1181C15.3868 15.99 15.4819 15.8985 15.5389 15.807C15.577 15.7704 15.653 15.7887 15.6911 15.807C15.7291 15.8436 15.7671 15.8802 15.8242 15.8619L15.8622 15.7887C15.9953 15.8619 15.9193 16.2462 16.1855 16.0815C16.2235 15.9168 16.1855 15.7155 16.2616 15.5691C16.2045 15.4227 16.3566 15.3678 16.3947 15.2763C16.5278 15.2946 16.5278 15.1299 16.5848 15.0567C16.794 15.0018 17.0222 14.9469 17.1744 14.7273C17.1173 14.6175 17.1554 14.4528 17.0603 14.3613C17.1554 14.343 17.3075 14.3064 17.3836 14.3796ZM18.1633 9.29206C18.962 9.38356 19.6846 9.60316 20.3882 9.91427C20.5023 10.0607 20.6925 10.1522 20.7305 10.3352C20.6164 10.6097 21.1109 10.5914 20.8827 10.8659C20.8636 10.9574 20.9397 10.994 20.9778 11.0672C20.9968 11.1404 20.9587 11.2502 21.0538 11.3051C21.225 11.3417 21.282 11.1221 21.4532 11.177C21.6624 11.3234 21.7194 11.5796 21.7194 11.7992C21.7384 11.9456 21.8715 12.0371 22.0047 12.092C22.2709 12.0188 22.1568 12.3116 22.3279 12.3848C22.5371 12.4031 22.6512 12.6776 22.8794 12.641C23.0886 12.7875 23.2027 13.0071 23.3929 13.1718C23.3929 13.2084 23.4119 13.245 23.4499 13.2633C23.564 13.2816 23.6211 13.2084 23.7162 13.2084C24.0775 13.9038 24.2487 14.6724 24.3057 15.4959L24.3437 15.5874C23.9064 15.5874 23.4499 15.5874 22.9935 15.624C22.9745 15.3678 22.9935 15.1116 22.8604 14.9103C22.9365 14.7822 22.9555 14.5992 22.9365 14.4528C22.9175 14.3796 22.8414 14.4528 22.8224 14.4528C22.6703 14.5809 22.6512 14.7822 22.5752 14.9469C22.4421 15.1116 22.423 15.3861 22.4991 15.5691L22.5562 15.624H22.0427C22.1758 15.5508 21.9286 15.4044 22.0617 15.2763L22.2899 15.2397C22.366 15.075 22.5562 14.9652 22.5371 14.7639C22.6322 14.6358 22.7273 14.4894 22.6512 14.3247C22.5371 14.0868 22.8414 13.8306 22.6132 13.611C22.6322 13.5378 22.5942 13.4463 22.4991 13.4463C22.423 13.428 22.347 13.4463 22.347 13.3548C22.385 13.2999 22.4991 13.2267 22.4611 13.1352C22.404 13.062 22.328 13.1352 22.2519 13.1169C22.2329 13.0071 22.4421 12.8973 22.2519 12.8057C22.1188 12.7874 22.0617 12.9339 21.9286 12.879C21.8715 12.8423 21.8335 12.7508 21.8906 12.6959L21.6243 12.3665C21.6053 12.3299 21.5102 12.3848 21.5102 12.3299C21.5292 12.0737 21.206 11.9273 21.1869 11.6711C21.0919 11.5796 21.1679 11.4149 21.0348 11.3417C20.9587 11.2868 20.8827 11.2319 20.7686 11.2685C20.6545 11.1038 20.5213 10.9574 20.3692 10.811C20.3312 10.7927 20.2931 10.8293 20.2741 10.8476C20.2931 10.9757 20.4453 11.0489 20.4453 11.177C20.4263 11.177 20.4072 11.177 20.3882 11.1953C20.4072 11.3234 20.5213 11.4332 20.5974 11.5064C19.8748 10.9757 19.019 10.7012 18.1252 10.5548C17.9541 10.5548 17.7639 10.4816 17.5927 10.5365C17.6308 10.1522 17.6118 9.71297 17.6118 9.31036L17.5737 9.21885C17.7829 9.31036 17.9731 9.25546 18.1633 9.29206ZM18.5246 7.51691C20.3692 7.75482 22.0047 8.46853 23.3929 9.73127L23.2408 9.78617C22.9935 10.0424 22.6893 10.262 22.5562 10.5548C22.5371 10.4633 22.404 10.4084 22.366 10.3352C22.347 10.0973 22.0997 9.85937 21.8715 9.73127C21.7004 9.69467 21.6433 9.43846 21.4342 9.51166C21.244 9.36526 21.0158 9.47506 20.8446 9.54826V9.56656C19.9699 9.09075 19 8.79794 17.9541 8.72474C17.897 8.72474 17.878 8.76134 17.8209 8.76134C17.878 8.72474 17.84 8.61494 17.84 8.56004C17.8209 8.52344 17.7639 8.46853 17.6878 8.50514C17.6688 8.54174 17.6498 8.57834 17.6498 8.61494C17.6688 8.23063 17.6878 7.73651 17.6308 7.3888C17.897 7.49861 18.2203 7.46201 18.5246 7.51691ZM19.3803 18.9181C19.7797 18.9547 20.16 19.0462 20.5213 19.1743C20.6164 19.1743 20.7115 19.1743 20.7686 19.1011C20.7495 18.9547 20.9207 18.8815 20.9017 18.7351C20.9778 18.607 20.9207 18.4423 21.0348 18.3325C21.0538 18.1861 21.0348 18.0031 20.9207 17.8933C20.8256 17.8384 20.7305 17.9116 20.6354 17.9299C20.5213 18.0031 20.5594 18.241 20.3692 18.1861C20.3312 18.241 20.2361 18.241 20.179 18.2227C20.16 18.2044 20.141 18.2044 20.141 18.1678C20.2741 18.0946 20.5213 18.1495 20.5404 17.9299C20.6354 17.8384 20.8066 17.875 20.9017 17.7835C20.9778 17.6737 20.9968 17.5822 21.0919 17.4907C21.0919 17.4541 21.1109 17.3992 21.1109 17.3626C21.1299 17.4175 21.1299 17.509 21.225 17.5456C21.3391 17.5822 21.3771 17.4907 21.4151 17.4175C21.4151 17.3809 21.4342 17.326 21.4722 17.3626C21.5863 17.4541 21.7384 17.3809 21.8715 17.3809C21.9856 17.3443 22.1188 17.326 22.2329 17.326C22.1188 17.8201 21.8715 18.2593 21.5673 18.6985C21.4532 18.8266 21.3581 18.973 21.225 19.1194C21.1869 19.0096 21.1869 18.8815 21.0919 18.79L21.0348 18.8083C20.9587 18.9547 20.8066 19.0645 20.8256 19.2292C20.7115 19.3939 20.4453 19.2475 20.2741 19.339C20.084 19.3939 19.9699 19.2109 19.8177 19.1743C19.6466 19.1011 19.4374 19.1011 19.2852 19.0096C19.3233 18.9547 19.3423 18.9181 19.3803 18.9181ZM20.6354 12.3665C20.3882 12.6227 20.084 12.879 19.8748 13.1535L19.8367 13.062C19.2282 12.5861 18.5436 12.3482 17.7829 12.2567L17.6688 12.275V11.0855L17.6308 10.994C18.1442 11.0672 18.6387 11.1404 19.1141 11.2868C19.7036 11.4881 20.2551 11.7992 20.7686 12.2018L20.8827 12.2384L20.6354 12.3665ZM22.5562 16.1181C22.4801 16.356 22.4801 16.6306 22.423 16.8685C22.404 16.9051 22.404 16.96 22.385 16.9966C22.3089 16.8502 22.2329 16.6489 22.0617 16.5573C21.9096 16.4841 22.0047 16.2828 21.8715 16.1913L21.7384 16.0632C21.9476 16.1547 22.2709 16.1364 22.5562 16.1181ZM21.7384 13.7757C21.8906 13.8123 21.9856 13.977 22.1378 14.0136C22.2709 14.2149 22.328 14.4528 22.404 14.6724C22.2709 14.8005 22.2709 15.0933 22.0047 15.0567C21.9476 14.9103 22.1188 14.8371 22.0807 14.6907C22.1188 14.6541 22.1948 14.6358 22.2138 14.5626C22.1948 14.4345 22.0237 14.4528 22.0047 14.3247C21.9476 14.2515 21.8525 14.2515 21.7765 14.2332C21.6053 14.16 21.4342 14.5809 21.3961 14.2332C21.4532 14.1966 21.4912 14.1234 21.4342 14.0685C21.282 13.9953 21.263 13.794 21.1109 13.7025C20.8827 13.7025 20.6735 13.611 20.4643 13.6659C20.3312 13.6293 20.16 13.5378 20.0459 13.6842C20.0459 13.794 19.9699 13.8855 19.9508 13.9953C19.8938 13.977 19.8558 13.9221 19.8177 13.8672C20.2171 13.428 20.6925 12.9888 21.1109 12.5678L21.1299 12.5129C21.3391 12.7691 21.5863 13.0254 21.7384 13.2999C21.7955 13.4829 21.4532 13.6659 21.7384 13.7757ZM19.1521 18.0031C19.1521 18.1678 18.9049 18.1495 18.7908 18.2593C18.7338 18.241 18.7718 18.1678 18.7908 18.1312C18.9049 18.0763 18.981 17.9848 19.1521 18.0031ZM18.7528 14.343C18.6767 14.3613 18.6006 14.4162 18.5246 14.3796C18.4485 14.3064 18.3534 14.1966 18.2203 14.1783C18.1252 14.1966 18.0682 14.3064 17.9731 14.2515C18.1442 14.0868 18.4295 14.0502 18.5626 13.8123C18.6006 13.7025 18.6387 13.5744 18.6197 13.4646C18.5816 13.4097 18.5056 13.3548 18.4485 13.4097C18.3534 13.5561 18.1442 13.5927 18.0491 13.7391L17.7259 13.6293C17.6688 13.3365 17.7449 12.9705 17.6688 12.7142C17.84 12.7691 18.0301 12.7875 18.2203 12.8241C18.6957 12.9339 19.1141 13.1535 19.5325 13.3914C19.4374 13.428 19.3423 13.5378 19.2662 13.611C19.2662 13.6842 19.3613 13.6659 19.3803 13.7208L19.4754 13.6842C19.2852 14.0319 18.8098 13.977 18.7528 14.343ZM21.3201 21.2057C21.0728 20.9861 21.4722 20.8214 21.5483 20.6201C21.5102 20.4188 21.263 20.2907 21.0919 20.2357C20.9968 20.1808 21.0348 20.0893 21.0348 20.0161C21.1109 19.9429 21.206 19.8697 21.244 19.7599L21.282 19.8514L21.8525 20.4188C21.8525 20.5469 21.8715 20.6567 22.0047 20.7116C22.0617 20.7299 22.1378 20.6933 22.1948 20.7116H22.1568C21.9096 20.9678 21.6243 21.1691 21.3391 21.3704L21.282 21.4619C21.225 21.3521 21.3961 21.2972 21.3201 21.2057ZM22.404 19.9246C22.2899 19.8148 22.2899 19.6135 22.0807 19.6135C22.0047 19.6135 21.9856 19.6684 21.9856 19.7233C21.9856 19.7599 22.0047 19.7965 21.9666 19.8148L21.5483 19.4671C21.7384 19.3756 21.8906 19.1194 22.0427 18.9364C22.423 18.424 22.6512 17.8384 22.8414 17.2528C22.8985 17.3077 22.9935 17.3077 23.0506 17.2711C23.1076 17.2162 23.1267 17.1247 23.0886 17.0698L22.9555 16.8868C22.9745 16.6123 23.0506 16.356 23.0126 16.0998L23.1076 16.1364C23.526 16.1364 23.9634 16.1547 24.3818 16.1181L24.3247 16.1913C24.2106 17.7835 23.6401 19.2292 22.4801 20.4005C22.5371 20.2357 22.385 20.0893 22.404 19.9246ZM26.1503 15.1482C26.1694 15.2946 26.1313 15.4776 26.2264 15.6057L24.8952 15.624C24.8572 15.6423 24.8192 15.6606 24.7811 15.6606L24.8192 15.6057C24.8001 14.5992 24.5149 13.7025 24.1155 12.8607C24.0965 12.4763 23.7162 12.2201 23.564 11.8907C23.2788 11.6894 23.1837 11.36 22.8414 11.177C22.7844 11.1038 22.7463 10.994 22.6512 10.9757L22.8034 10.9391C23.1267 10.628 23.469 10.3169 23.7162 9.98748C25.1044 11.4881 25.9792 13.1718 26.1503 15.1482ZM25.713 12.0188C24.2106 8.92605 20.9017 6.9679 17.4406 6.9679C15.9193 6.9862 14.531 7.3156 13.2569 7.91952C10.9939 8.96265 9.14924 11.2136 8.52169 13.4463C7.51379 17.2162 8.88301 21.0227 12.23 23.237C14.6451 24.9024 18.4865 25.2135 21.206 23.9507C23.6211 22.9808 25.6749 20.5835 26.3025 18.2227C26.93 16.2462 26.6638 13.794 25.713 12.0188Z" fill="white"/>
<path d="M21.5098 9.23747C21.5098 9.29248 21.5098 9.32915 21.5478 9.36581C21.738 9.43915 21.757 9.69583 22.0042 9.64083C22.0803 9.56749 21.9662 9.47582 21.9852 9.36581C21.9472 9.27414 21.8711 9.23747 21.776 9.20081C21.6619 9.31081 21.5858 9.1458 21.5098 9.23747Z" fill="white"/>
<path d="M17.8384 8.48698C18.0856 8.77979 18.504 8.61509 18.8083 8.56019C19.0365 8.65169 19.2457 8.54188 19.3978 8.41378V8.37718C19.2457 8.15757 18.9414 8.13927 18.6752 8.12097L18.0096 8.39548C17.9525 8.37718 17.8574 8.34058 17.8194 8.41378C17.8004 8.45038 17.8194 8.46868 17.8384 8.48698Z" fill="white"/>
</svg>
